<svg width="18" height="16" viewBox="0 0 18 16" fill="none" xmlns="http://www.w3.org/2000/svg">
<path d="M6.04102 2.57534V0.912373H7.06005C7.32827 0.912373 9.20584 0.912373 9.68865 0.644123C10.0749 0.429523 11.4947 0.733539 12.1563 0.912373C12.0669 1.46669 11.9417 2.57534 12.1563 2.57534H6.04102Z" fill="#E60112"/>
<path d="M7.04297 9.86755V8.09961H8.25519H11.1344L10.8819 9.86755H7.04297Z" fill="#E60112"/>
<path d="M17.2534 2.35111C17.2523 2.35111 17.2512 2.35098 17.2501 2.35098H12.5942V1.83745C12.5942 0.987994 11.9031 0.296875 11.0536 0.296875H6.94541C6.09596 0.296875 5.40484 0.987994 5.40484 1.83745V2.35098H0.748877C0.462961 2.35098 0.235352 2.58527 0.235352 2.8645V14.1621C0.235352 15.0115 0.926471 15.7026 1.77593 15.7026H16.2231C17.0726 15.7026 17.7637 15.0115 17.7637 14.1621V2.87533C17.7637 2.87466 17.7637 2.874 17.7637 2.87333C17.744 2.53606 17.5366 2.35298 17.2534 2.35111ZM6.43189 1.83745C6.43189 1.55434 6.6623 1.32393 6.94541 1.32393H11.0536C11.3367 1.32393 11.5671 1.55434 11.5671 1.83745V2.35098H6.43189V1.83745ZM16.5376 3.37803L14.9429 8.1621C14.873 8.37219 14.6772 8.51328 14.4559 8.51328H11.5671V7.99975C11.5671 7.71611 11.3373 7.48623 11.0536 7.48623H6.94541C6.66177 7.48623 6.43189 7.71611 6.43189 7.99975V8.51328H3.54318C3.32185 8.51328 3.12607 8.37219 3.05613 8.1621L1.46139 3.37803H16.5376ZM10.5401 8.51328V9.54033H7.45894V8.51328H10.5401ZM16.7366 14.1621C16.7366 14.4452 16.5062 14.6756 16.2231 14.6756H1.77593C1.49282 14.6756 1.2624 14.4452 1.2624 14.1621V6.02896L2.08177 8.48693C2.29173 9.11707 2.87907 9.54033 3.54318 9.54033H6.43189V10.0539C6.43189 10.3375 6.66177 10.5674 6.94541 10.5674H11.0536C11.3373 10.5674 11.5671 10.3375 11.5671 10.0539V9.54033H14.4559C15.12 9.54033 15.7073 9.11707 15.9173 8.48693L16.7366 6.02896V14.1621Z" fill="black"/>
</svg>
