<svg width="26" height="26" viewBox="0 0 26 26" fill="none" xmlns="http://www.w3.org/2000/svg">
<path d="M6.08508 8.92116C5.80139 9.063 5.73047 10.9897 5.73047 11.9353C7.3262 11.8171 10.7304 11.6162 11.5815 11.758C12.6453 11.9353 18.4964 11.5807 19.5602 11.9353C20.4112 12.219 20.3876 11.8171 20.2694 11.5807L19.9148 10.1623C19.7375 9.63037 19.3119 8.56655 19.0283 8.56655H14.5957C13.8864 8.56655 12.9999 9.63037 12.6453 9.45307C12.2907 9.27577 11.9361 8.92116 11.4042 8.56655C10.8723 8.21194 6.43968 8.74385 6.08508 8.92116Z" fill="#E60112"/>
<path d="M22.2804 12.8112V6.12382C22.2804 4.49717 20.957 3.17383 19.3304 3.17383H6.58388C4.95722 3.17383 3.63389 4.49721 3.63389 6.12382V12.8975C2.84599 13.7212 2.36133 14.8372 2.36133 16.0644V21.1351C2.36133 22.0659 3.1186 22.8232 4.04944 22.8232C4.98025 22.8232 5.73751 22.0659 5.73751 21.1351V20.6114H20.2617V21.1351C20.2617 22.0659 21.0189 22.8232 21.9497 22.8232C22.8805 22.8232 23.6378 22.066 23.6378 21.1351V16.0644C23.6378 14.7938 23.1182 13.6424 22.2804 12.8112ZM6.58388 4.00494H19.3304C20.4988 4.00494 21.4493 4.95548 21.4493 6.12382V12.1572C21.1948 12.0004 20.9239 11.8679 20.6399 11.7627V10.3809C20.6399 9.1558 19.6432 8.15913 18.4181 8.15913H14.8058C14.0621 8.15913 13.4031 8.52677 12.9996 9.08948C12.5961 8.52677 11.9371 8.15913 11.1934 8.15913H7.58109C6.35603 8.15913 5.35936 9.15576 5.35936 10.3809V11.7627C5.04349 11.8796 4.74392 12.0304 4.46504 12.2106V6.12382C4.465 4.95548 5.4155 4.00494 6.58388 4.00494ZM6.94628 11.4794C6.68885 11.4794 6.43635 11.5011 6.19039 11.5421V10.3809C6.19039 9.61407 6.81422 8.99024 7.581 8.99024H11.1933C11.9601 8.99024 12.584 9.61407 12.584 10.3809V11.4795H6.94628V11.4794ZM13.4151 10.3808C13.4151 9.61403 14.039 8.9902 14.8057 8.9902H18.4181C19.1849 8.9902 19.8087 9.61403 19.8087 10.3808V11.542C19.5627 11.5011 19.3102 11.4794 19.0528 11.4794H13.4151V10.3808ZM6.94628 12.3105H19.0528C21.1227 12.3105 22.8066 13.9945 22.8066 16.0644V17.2972H18.6388C18.4093 17.2972 18.2232 17.4833 18.2232 17.7128C18.2232 17.9422 18.4093 18.1283 18.6388 18.1283H22.8067V19.7804H3.19244V18.1283H14.4832C14.7127 18.1283 14.8988 17.9422 14.8988 17.7128C14.8988 17.4833 14.7127 17.2972 14.4832 17.2972H3.19244V16.0644C3.19244 13.9945 4.8764 12.3105 6.94628 12.3105ZM4.9064 21.1351C4.9064 21.6076 4.52197 21.9921 4.04944 21.9921C3.57691 21.9921 3.19244 21.6076 3.19244 21.1351V20.6114H4.9064V21.1351ZM21.9497 21.9921C21.4772 21.9921 21.0927 21.6076 21.0927 21.1351V20.6114H22.8067V21.1351C22.8067 21.6076 22.4223 21.9921 21.9497 21.9921Z" fill="black"/>
<path fill-rule="evenodd" clip-rule="evenodd" d="M20.695 18.1541H9.99023V17.2695H20.695V18.1541Z" fill="black"/>
<path d="M16.5613 18.1284C16.7909 18.1284 16.977 17.9423 16.977 17.7126C16.977 17.483 16.7909 17.2969 16.5613 17.2969C16.3317 17.2969 16.1455 17.483 16.1455 17.7126C16.1455 17.9423 16.3317 18.1284 16.5613 18.1284Z" fill="black"/>
</svg>
