<svg width="40" height="40" viewBox="0 0 40 40" fill="none" xmlns="http://www.w3.org/2000/svg">
<circle cx="20" cy="20" r="20" fill="#FEF1F2"/>
<path d="M13.0851 15.9212C12.8014 16.063 12.7305 17.9897 12.7305 18.9353C14.3262 18.8171 17.7304 18.6162 18.5815 18.758C19.6453 18.9353 25.4964 18.5807 26.5602 18.9353C27.4112 19.219 27.3876 18.8171 27.2694 18.5807L26.9148 17.1623C26.7375 16.6304 26.3119 15.5666 26.0283 15.5666H21.5957C20.8864 15.5666 19.9999 16.6304 19.6453 16.4531C19.2907 16.2758 18.9361 15.9212 18.4042 15.5666C17.8723 15.2119 13.4397 15.7439 13.0851 15.9212Z" fill="#E60112"/>
<path d="M29.2804 19.8112V13.1238C29.2804 11.4972 27.957 10.1738 26.3304 10.1738H13.5839C11.9572 10.1738 10.6339 11.4972 10.6339 13.1238V19.8975C9.84599 20.7212 9.36133 21.8372 9.36133 23.0644V28.1351C9.36133 29.0659 10.1186 29.8232 11.0494 29.8232C11.9802 29.8232 12.7375 29.0659 12.7375 28.1351V27.6114H27.2617V28.1351C27.2617 29.0659 28.0189 29.8232 28.9497 29.8232C29.8805 29.8232 30.6378 29.066 30.6378 28.1351V23.0644C30.6378 21.7938 30.1182 20.6424 29.2804 19.8112ZM13.5839 11.0049H26.3304C27.4988 11.0049 28.4493 11.9555 28.4493 13.1238V19.1572C28.1948 19.0004 27.9239 18.8679 27.6399 18.7627V17.3809C27.6399 16.1558 26.6432 15.1591 25.4181 15.1591H21.8058C21.0621 15.1591 20.4031 15.5268 19.9996 16.0895C19.5961 15.5268 18.9371 15.1591 18.1934 15.1591H14.5811C13.356 15.1591 12.3594 16.1558 12.3594 17.3809V18.7627C12.0435 18.8796 11.7439 19.0304 11.465 19.2106V13.1238C11.465 11.9555 12.4155 11.0049 13.5839 11.0049ZM13.9463 18.4794C13.6888 18.4794 13.4364 18.5011 13.1904 18.5421V17.3809C13.1904 16.6141 13.8142 15.9902 14.581 15.9902H18.1933C18.9601 15.9902 19.584 16.6141 19.584 17.3809V18.4795H13.9463V18.4794ZM20.4151 17.3808C20.4151 16.614 21.039 15.9902 21.8057 15.9902H25.4181C26.1849 15.9902 26.8087 16.614 26.8087 17.3808V18.542C26.5627 18.5011 26.3102 18.4794 26.0528 18.4794H20.4151V17.3808ZM13.9463 19.3105H26.0528C28.1227 19.3105 29.8066 20.9945 29.8066 23.0644V24.2972H25.6388C25.4093 24.2972 25.2232 24.4833 25.2232 24.7128C25.2232 24.9422 25.4093 25.1283 25.6388 25.1283H29.8067V26.7804H10.1924V25.1283H21.4832C21.7127 25.1283 21.8988 24.9422 21.8988 24.7128C21.8988 24.4833 21.7127 24.2972 21.4832 24.2972H10.1924V23.0644C10.1924 20.9945 11.8764 19.3105 13.9463 19.3105ZM11.9064 28.1351C11.9064 28.6076 11.522 28.9921 11.0494 28.9921C10.5769 28.9921 10.1924 28.6076 10.1924 28.1351V27.6114H11.9064V28.1351ZM28.9497 28.9921C28.4772 28.9921 28.0927 28.6076 28.0927 28.1351V27.6114H29.8067V28.1351C29.8067 28.6076 29.4223 28.9921 28.9497 28.9921Z" fill="black"/>
<path fill-rule="evenodd" clip-rule="evenodd" d="M27.695 25.1541H16.9902V24.2695H27.695V25.1541Z" fill="black"/>
<path d="M23.5613 25.1284C23.7909 25.1284 23.977 24.9423 23.977 24.7126C23.977 24.483 23.7909 24.2969 23.5613 24.2969C23.3317 24.2969 23.1455 24.483 23.1455 24.7126C23.1455 24.9423 23.3317 25.1284 23.5613 25.1284Z" fill="black"/>
</svg>
