<svg width="26" height="26" viewBox="0 0 26 26" fill="none" xmlns="http://www.w3.org/2000/svg">
<path fill-rule="evenodd" clip-rule="evenodd" d="M5.95312 4.29107L6.7682 8.97777H7.17574H18.3831C18.8721 8.97777 19.2661 6.66838 19.4019 5.51369C18.7906 5.37784 17.5272 5.10615 17.3642 5.10615C17.2138 5.10615 16.2419 4.64334 15.6657 4.3584L15.7339 4.49477H14.1038C14.0358 5.03816 13.8592 6.12493 13.6962 6.12493C13.5332 6.12493 12.9491 6.26078 12.6774 6.3287L12.2698 3.67969L11.2511 3.47596V3.47599L5.95312 4.29107ZM11.2511 3.06822C11.5229 2.79648 12.1068 2.25331 12.2698 2.25331C12.4116 2.25331 13.6947 2.56174 14.5626 2.77612C14.1644 2.55146 13.4504 2.19188 12.8813 2.0496C12.2292 1.88659 11.5228 2.52507 11.2511 2.86468V3.06822Z" fill="#E60112"/>
<path d="M16.0772 4.61544C15.8519 3.03652 14.4776 1.8457 12.8805 1.8457C11.8534 1.8457 10.878 2.34133 10.2715 3.17197C10.1476 3.34137 10.1847 3.579 10.3541 3.70288C10.5229 3.82631 10.7611 3.78969 10.8847 3.62007C11.349 2.98487 12.0949 2.60556 12.8804 2.60556C14.1018 2.60556 15.1526 3.51578 15.3249 4.72262C15.3521 4.91217 15.5147 5.04896 15.7006 5.04896C15.7183 5.04896 15.7366 5.04762 15.7547 5.04517C15.9624 5.01546 16.1068 4.82302 16.0772 4.61544Z" fill="#131620"/>
<path d="M21.5643 8.86917L20.4245 6.96958C20.356 6.85505 20.2323 6.78516 20.0988 6.78516H19.0066C18.7969 6.78516 18.6267 6.95534 18.6267 7.16503C18.6267 7.37472 18.7969 7.5449 19.0066 7.5449H19.8837L20.5676 8.68463H5.19338L5.87721 7.5449H6.27957C6.48926 7.5449 6.65944 7.37472 6.65944 7.16503C6.65944 6.95534 6.48926 6.78516 6.27957 6.78516H5.66218C5.52862 6.78516 5.40496 6.85505 5.3364 6.96958L4.19667 8.86917C4.12622 8.9867 4.12455 9.13284 4.19189 9.25193C4.25922 9.37102 4.38544 9.44471 4.52245 9.44471H21.2385C21.3755 9.44471 21.5016 9.37102 21.569 9.25193C21.6365 9.13284 21.6347 8.98648 21.5643 8.86917Z" fill="#131620"/>
<path d="M19.6708 5.36554C19.6176 5.27973 19.5327 5.21884 19.4345 5.19592L14.2555 3.98462C14.1575 3.96158 14.0542 3.97872 13.9685 4.0317C13.883 4.0849 13.822 4.16983 13.7991 4.268L13.4085 5.93752C13.3607 6.14176 13.4876 6.34611 13.6919 6.39374C13.8961 6.4416 14.1007 6.31472 14.1484 6.11037L14.4524 4.81092L18.8915 5.84926L18.1939 8.83158C18.1461 9.03582 18.273 9.24017 18.4773 9.2878C18.5066 9.29459 18.5356 9.29782 18.5644 9.29782C18.7369 9.29782 18.893 9.17962 18.9336 9.00454L19.7178 5.65236C19.7409 5.55431 19.724 5.45102 19.6708 5.36554Z" fill="#131620"/>
<path d="M13.0825 6.26319L12.7364 3.3354C12.7246 3.23534 12.6735 3.14396 12.5942 3.08164C12.515 3.01931 12.4149 2.99081 12.3144 3.00261L5.96023 3.75367C5.75198 3.77838 5.60306 3.96715 5.62766 4.17562L6.20476 9.05874C6.22768 9.25208 6.39163 9.39421 6.58162 9.39421C6.59643 9.39421 6.61167 9.39321 6.62681 9.39154C6.83494 9.36683 6.98387 9.17806 6.95938 8.96959L6.4268 4.46344L12.0265 3.80164L12.3279 6.35212C12.3526 6.56047 12.5405 6.7085 12.7498 6.68491C12.9581 6.66042 13.107 6.47154 13.0825 6.26319Z" fill="#131620"/>
<path d="M16.0865 8.91878L15.3324 5.78297C15.3088 5.68513 15.2473 5.60043 15.1615 5.54779C15.0757 5.49559 14.9727 5.47923 14.8742 5.5026L8.75407 6.97445C8.55005 7.02342 8.42451 7.22866 8.47348 7.43268L8.85035 9.00003C8.89932 9.20426 9.10456 9.32992 9.30846 9.28062C9.51248 9.23164 9.63803 9.0264 9.58905 8.82239L9.30089 7.62434L14.6823 6.33035L15.3476 9.09664C15.3893 9.27082 15.5451 9.38769 15.7166 9.38769C15.7461 9.38769 15.776 9.38424 15.8059 9.377C16.0099 9.32792 16.1355 9.12279 16.0865 8.91878Z" fill="#131620"/>
<path d="M21.6192 9.04399C21.6088 8.84209 21.4421 8.68359 21.2397 8.68359H4.52368C4.32134 8.68359 4.15461 8.84198 4.14414 9.04399L3.38429 23.8604C3.37895 23.9644 3.41657 24.0661 3.48825 24.1416C3.56003 24.2169 3.65954 24.2598 3.76372 24.2598H21.9993C22.1034 24.2598 22.203 24.217 22.2751 24.1416C22.3467 24.0661 22.3843 23.9645 22.3791 23.8604L21.6192 9.04399ZM4.16351 23.4999L4.88441 9.44334H20.8785L21.5994 23.4999H4.16351Z" fill="#131620"/>
<path d="M15.7305 10.2031C15.102 10.2031 14.5908 10.7143 14.5908 11.3429C14.5908 11.9714 15.102 12.4826 15.7305 12.4826C16.3591 12.4826 16.8703 11.9714 16.8703 11.3429C16.8703 10.7143 16.3591 10.2031 15.7305 10.2031ZM15.7305 11.7228C15.521 11.7228 15.3507 11.5524 15.3507 11.343C15.3507 11.1335 15.5211 10.9631 15.7305 10.9631C15.94 10.9631 16.1104 11.1335 16.1104 11.343C16.1104 11.5524 15.94 11.7228 15.7305 11.7228Z" fill="#131620"/>
<path d="M10.0323 10.2031C9.40379 10.2031 8.89258 10.7143 8.89258 11.3429C8.89258 11.9714 9.40379 12.4826 10.0323 12.4826C10.6608 12.4826 11.172 11.9714 11.172 11.3429C11.172 10.7143 10.6608 10.2031 10.0323 10.2031ZM10.0323 11.7228C9.82284 11.7228 9.65243 11.5524 9.65243 11.343C9.65243 11.1335 9.82284 10.9631 10.0323 10.9631C10.2418 10.9631 10.4122 11.1335 10.4122 11.343C10.4122 11.5524 10.2418 11.7228 10.0323 11.7228Z" fill="#131620"/>
<path d="M15.7299 11.3438H15.7006C15.4909 11.3438 15.3207 11.5139 15.3207 11.7236C15.3207 11.7755 15.331 11.825 15.35 11.8701V13.8131C15.35 15.1746 14.2422 16.2825 12.8806 16.2825C11.5189 16.2825 10.4111 15.1747 10.4111 13.8131V11.7237C10.4111 11.514 10.2409 11.3439 10.0312 11.3439C9.82155 11.3439 9.65137 11.514 9.65137 11.7237V13.8132C9.65137 15.5938 11.1 17.0424 12.8806 17.0424C14.6612 17.0424 16.1097 15.5938 16.1097 13.8132V11.7237C16.1097 11.514 15.9396 11.3438 15.7299 11.3438Z" fill="#131620"/>
</svg>
