<svg width="40" height="40" viewBox="0 0 40 40" fill="none" xmlns="http://www.w3.org/2000/svg">
<circle cx="20" cy="20" r="20" fill="#FEF1F2"/>
<path fill-rule="evenodd" clip-rule="evenodd" d="M12.9531 11.2911L13.7682 15.9778H14.1757H25.3831C25.8721 15.9778 26.2661 13.6684 26.4019 12.5137C25.7906 12.3778 24.5272 12.1061 24.3642 12.1061C24.2138 12.1061 23.2419 11.6433 22.6657 11.3584L22.7339 11.4948H21.1038C21.0358 12.0382 20.8592 13.1249 20.6962 13.1249C20.5332 13.1249 19.9491 13.2608 19.6774 13.3287L19.2698 10.6797L18.2511 10.476V10.476L12.9531 11.2911ZM18.2511 10.0682C18.5229 9.79648 19.1068 9.25331 19.2698 9.25331C19.4116 9.25331 20.6947 9.56174 21.5626 9.77612C21.1644 9.55146 20.4504 9.19188 19.8813 9.0496C19.2292 8.88659 18.5228 9.52507 18.2511 9.86468V10.0682Z" fill="#E60112"/>
<path d="M23.0772 11.6154C22.8519 10.0365 21.4776 8.8457 19.8805 8.8457C18.8534 8.8457 17.878 9.34133 17.2715 10.172C17.1476 10.3414 17.1847 10.579 17.3541 10.7029C17.5229 10.8263 17.7611 10.7897 17.8847 10.6201C18.349 9.98487 19.0949 9.60556 19.8804 9.60556C21.1018 9.60556 22.1526 10.5158 22.3249 11.7226C22.3521 11.9122 22.5147 12.049 22.7006 12.049C22.7183 12.049 22.7366 12.0476 22.7547 12.0452C22.9624 12.0155 23.1068 11.823 23.0772 11.6154Z" fill="#131620"/>
<path d="M28.5643 15.8692L27.4245 13.9696C27.356 13.8551 27.2323 13.7852 27.0988 13.7852H26.0066C25.7969 13.7852 25.6267 13.9553 25.6267 14.165C25.6267 14.3747 25.7969 14.5449 26.0066 14.5449H26.8837L27.5676 15.6846H12.1934L12.8772 14.5449H13.2796C13.4893 14.5449 13.6594 14.3747 13.6594 14.165C13.6594 13.9553 13.4893 13.7852 13.2796 13.7852H12.6622C12.5286 13.7852 12.405 13.8551 12.3364 13.9696L11.1967 15.8692C11.1262 15.9867 11.1245 16.1328 11.1919 16.2519C11.2592 16.371 11.3854 16.4447 11.5225 16.4447H28.2385C28.3755 16.4447 28.5016 16.371 28.569 16.2519C28.6365 16.1328 28.6347 15.9865 28.5643 15.8692Z" fill="#131620"/>
<path d="M26.6708 12.3655C26.6176 12.2797 26.5327 12.2188 26.4345 12.1959L21.2555 10.9846C21.1575 10.9616 21.0542 10.9787 20.9685 11.0317C20.883 11.0849 20.822 11.1698 20.7991 11.268L20.4085 12.9375C20.3607 13.1418 20.4876 13.3461 20.6919 13.3937C20.8961 13.4416 21.1007 13.3147 21.1484 13.1104L21.4524 11.8109L25.8915 12.8493L25.1939 15.8316C25.1461 16.0358 25.273 16.2402 25.4773 16.2878C25.5066 16.2946 25.5356 16.2978 25.5644 16.2978C25.7369 16.2978 25.893 16.1796 25.9336 16.0045L26.7178 12.6524C26.7409 12.5543 26.724 12.451 26.6708 12.3655Z" fill="#131620"/>
<path d="M20.0825 13.2632L19.7364 10.3354C19.7246 10.2353 19.6735 10.144 19.5942 10.0816C19.515 10.0193 19.4149 9.99081 19.3144 10.0026L12.9602 10.7537C12.752 10.7784 12.6031 10.9671 12.6277 11.1756L13.2048 16.0587C13.2277 16.2521 13.3916 16.3942 13.5816 16.3942C13.5964 16.3942 13.6117 16.3932 13.6268 16.3915C13.8349 16.3668 13.9839 16.1781 13.9594 15.9696L13.4268 11.4634L19.0265 10.8016L19.3279 13.3521C19.3526 13.5605 19.5405 13.7085 19.7498 13.6849C19.9581 13.6604 20.107 13.4715 20.0825 13.2632Z" fill="#131620"/>
<path d="M23.0865 15.9188L22.3324 12.783C22.3088 12.6851 22.2473 12.6004 22.1615 12.5478C22.0757 12.4956 21.9727 12.4792 21.8742 12.5026L15.7541 13.9745C15.5501 14.0234 15.4245 14.2287 15.4735 14.4327L15.8503 16C15.8993 16.2043 16.1046 16.3299 16.3085 16.2806C16.5125 16.2316 16.638 16.0264 16.5891 15.8224L16.3009 14.6243L21.6823 13.3303L22.3476 16.0966C22.3893 16.2708 22.5451 16.3877 22.7166 16.3877C22.7461 16.3877 22.776 16.3842 22.8059 16.377C23.0099 16.3279 23.1355 16.1228 23.0865 15.9188Z" fill="#131620"/>
<path d="M28.6192 16.044C28.6088 15.8421 28.4421 15.6836 28.2397 15.6836H11.5237C11.3213 15.6836 11.1546 15.842 11.1441 16.044L10.3843 30.8604C10.3789 30.9644 10.4166 31.0661 10.4882 31.1416C10.56 31.2169 10.6595 31.2598 10.7637 31.2598H28.9993C29.1034 31.2598 29.203 31.217 29.2751 31.1416C29.3467 31.0661 29.3843 30.9645 29.3791 30.8604L28.6192 16.044ZM11.1635 30.4999L11.8844 16.4433H27.8785L28.5994 30.4999H11.1635Z" fill="#131620"/>
<path d="M22.7305 17.2031C22.102 17.2031 21.5908 17.7143 21.5908 18.3429C21.5908 18.9714 22.102 19.4826 22.7305 19.4826C23.3591 19.4826 23.8703 18.9714 23.8703 18.3429C23.8703 17.7143 23.3591 17.2031 22.7305 17.2031ZM22.7305 18.7228C22.521 18.7228 22.3507 18.5524 22.3507 18.343C22.3507 18.1335 22.5211 17.9631 22.7305 17.9631C22.94 17.9631 23.1104 18.1335 23.1104 18.343C23.1104 18.5524 22.94 18.7228 22.7305 18.7228Z" fill="#131620"/>
<path d="M17.0323 17.2031C16.4038 17.2031 15.8926 17.7143 15.8926 18.3429C15.8926 18.9714 16.4038 19.4826 17.0323 19.4826C17.6608 19.4826 18.172 18.9714 18.172 18.3429C18.172 17.7143 17.6608 17.2031 17.0323 17.2031ZM17.0323 18.7228C16.8228 18.7228 16.6524 18.5524 16.6524 18.343C16.6524 18.1335 16.8228 17.9631 17.0323 17.9631C17.2418 17.9631 17.4122 18.1335 17.4122 18.343C17.4122 18.5524 17.2418 18.7228 17.0323 18.7228Z" fill="#131620"/>
<path d="M22.7299 18.3438H22.7006C22.4909 18.3438 22.3207 18.5139 22.3207 18.7236C22.3207 18.7755 22.331 18.825 22.35 18.8701V20.8131C22.35 22.1746 21.2422 23.2825 19.8806 23.2825C18.5189 23.2825 17.4111 22.1747 17.4111 20.8131V18.7237C17.4111 18.514 17.2409 18.3439 17.0312 18.3439C16.8215 18.3439 16.6514 18.514 16.6514 18.7237V20.8132C16.6514 22.5938 18.1 24.0424 19.8806 24.0424C21.6612 24.0424 23.1097 22.5938 23.1097 20.8132V18.7237C23.1097 18.514 22.9396 18.3438 22.7299 18.3438Z" fill="#131620"/>
</svg>
