<svg width="41" height="40" viewBox="0 0 41 40" fill="none" xmlns="http://www.w3.org/2000/svg">
<circle cx="20.5" cy="20" r="20" fill="#FEF1F2"/>
<path d="M21.5335 20.3281H23.7327L25.4244 21.1989L25.7628 22.7662L25.4244 24.8559L23.5635 26.2491L20.6876 25.2042L19.8418 22.7662L21.5335 20.3281Z" fill="#E60112"/>
<path d="M22.9704 26.5267C24.7714 26.5267 26.2367 25.0615 26.2367 23.2604C26.2367 21.4594 24.7714 19.9941 22.9704 19.9941C21.1694 19.9941 19.7041 21.4594 19.7041 23.2604C19.7041 25.0615 21.1694 26.5267 22.9704 26.5267ZM22.9704 20.7908C24.3322 20.7908 25.44 21.8987 25.44 23.2604C25.44 24.6222 24.3322 25.7301 22.9704 25.7301C21.6086 25.7301 20.5008 24.6222 20.5008 23.2604C20.5008 21.8987 21.6086 20.7908 22.9704 20.7908Z" fill="#131620"/>
<path d="M13.7021 15.7681L14.4163 14.6582H15.1304L16.0826 15.7681C16.273 15.9901 15.8446 16.4155 15.6065 16.6005H13.9402L13.7021 15.7681Z" fill="#E60112"/>
<path d="M28.677 16.3286H27.4653L26.0745 13.975C26.0028 13.8537 25.8724 13.7793 25.7316 13.7793H20.2081C20.0672 13.7793 19.9368 13.8537 19.8652 13.975L18.4744 16.3286H16.198V15.8506C16.198 15.0599 15.5547 14.4166 14.764 14.4166C13.9733 14.4166 13.33 15.0599 13.33 15.8506V16.3286H12.3229C11.209 16.3286 10.3027 17.2348 10.3027 18.3488V28.1702C10.3027 29.2842 11.209 30.1904 12.3229 30.1904H28.6769C29.7909 30.1904 30.6971 29.2842 30.6971 28.1702V18.3488C30.6971 17.2348 29.7909 16.3286 28.677 16.3286ZM20.4354 14.576H25.5043L26.5399 16.3286H19.3997L20.4354 14.576ZM14.1267 15.8506C14.1267 15.4992 14.4126 15.2133 14.764 15.2133C15.1154 15.2133 15.4013 15.4992 15.4013 15.8506V16.3286H14.1267V15.8506ZM29.9005 28.1702C29.9005 28.8449 29.3516 29.3938 28.677 29.3938H12.3229C11.6482 29.3938 11.0994 28.8449 11.0994 28.1702V18.3488C11.0994 17.6741 11.6482 17.1253 12.3229 17.1253H28.6769C29.3516 17.1253 29.9004 17.6741 29.9004 18.3488V28.1702H29.9005Z" fill="#131620"/>
<path d="M22.9696 12.7312C23.1896 12.7312 23.3679 12.5529 23.3679 12.3329V10.2069C23.3679 9.98697 23.1896 9.80859 22.9696 9.80859C22.7496 9.80859 22.5713 9.98693 22.5713 10.2069V12.3329C22.5713 12.5529 22.7496 12.7312 22.9696 12.7312Z" fill="#131620"/>
<path d="M24.8651 12.7308C24.967 12.7308 25.069 12.6919 25.1468 12.6141L26.6083 11.1526C26.7638 10.9971 26.7638 10.7449 26.6082 10.5893C26.4527 10.4338 26.2005 10.4338 26.0449 10.5893L24.5835 12.0508C24.4279 12.2064 24.4279 12.4586 24.5835 12.6142C24.6613 12.6919 24.7632 12.7308 24.8651 12.7308Z" fill="#131620"/>
<path d="M20.793 12.6141C20.8708 12.6919 20.9727 12.7308 21.0746 12.7308C21.1766 12.7308 21.2786 12.6919 21.3563 12.6141C21.5119 12.4586 21.5119 12.2064 21.3563 12.0508L19.8948 10.5893C19.7393 10.4338 19.4871 10.4338 19.3315 10.5893C19.176 10.7448 19.1759 10.997 19.3315 11.1526L20.793 12.6141Z" fill="#131620"/>
<path d="M15.7997 19.5957H13.7284C13.5084 19.5957 13.3301 19.7741 13.3301 19.994C13.3301 20.214 13.5084 20.3924 13.7284 20.3924H15.7997C16.0197 20.3924 16.198 20.214 16.198 19.994C16.198 19.774 16.0197 19.5957 15.7997 19.5957Z" fill="#131620"/>
<path fill-rule="evenodd" clip-rule="evenodd" d="M22.9697 27.508C25.3165 27.508 27.2189 25.6055 27.2189 23.2588C27.2189 20.912 25.3165 19.0096 22.9697 19.0096C20.623 19.0096 18.7206 20.912 18.7206 23.2588C18.7206 25.6055 20.623 27.508 22.9697 27.508ZM22.9697 28.2363C25.7188 28.2363 27.9473 26.0078 27.9473 23.2588C27.9473 20.5098 25.7188 18.2812 22.9697 18.2812C20.2207 18.2812 17.9922 20.5098 17.9922 23.2588C17.9922 26.0078 20.2207 28.2363 22.9697 28.2363Z" fill="#131620"/>
</svg>
