<svg width="25" height="26" viewBox="0 0 25 26" fill="none" xmlns="http://www.w3.org/2000/svg">
<path d="M12.5124 16.2905C14.3228 16.2905 15.7905 14.8228 15.7905 13.0124C15.7905 11.202 14.3228 9.73438 12.5124 9.73438C10.702 9.73438 9.23438 11.202 9.23438 13.0124C9.23438 14.8228 10.702 16.2905 12.5124 16.2905Z" fill="white"/>
<path d="M9.43929 2.76758L7.56465 4.81636H4.31734C3.19051 4.81636 2.26855 5.73831 2.26855 6.86514V19.1578C2.26855 20.2847 3.19051 21.2066 4.31734 21.2066H20.7076C21.8344 21.2066 22.7564 20.2847 22.7564 19.1578V6.86514C22.7564 5.73831 21.8344 4.81636 20.7076 4.81636H17.4603L15.5856 2.76758H9.43929ZM12.5125 18.1334C9.68514 18.1334 7.39051 15.8388 7.39051 13.0115C7.39051 10.1842 9.68514 7.88953 12.5125 7.88953C15.3398 7.88953 17.6344 10.1842 17.6344 13.0115C17.6344 15.8388 15.3398 18.1334 12.5125 18.1334Z" fill="white"/>
</svg>
