<svg width="25" height="26" viewBox="0 0 25 26" fill="none" xmlns="http://www.w3.org/2000/svg">
<path d="M13.5335 13.3281H15.7327L17.4244 14.1989L17.7628 15.7662L17.4244 17.8559L15.5635 19.2491L12.6876 18.2042L11.8418 15.7662L13.5335 13.3281Z" fill="#E60112"/>
<path d="M14.9704 19.5267C16.7714 19.5267 18.2367 18.0615 18.2367 16.2604C18.2367 14.4594 16.7714 12.9941 14.9704 12.9941C13.1694 12.9941 11.7041 14.4594 11.7041 16.2604C11.7041 18.0615 13.1694 19.5267 14.9704 19.5267ZM14.9704 13.7908C16.3322 13.7908 17.44 14.8987 17.44 16.2604C17.44 17.6222 16.3322 18.7301 14.9704 18.7301C13.6086 18.7301 12.5008 17.6222 12.5008 16.2604C12.5008 14.8987 13.6086 13.7908 14.9704 13.7908Z" fill="#131620"/>
<path d="M5.70215 8.7681L6.41628 7.6582H7.13042L8.0826 8.7681C8.27303 8.99008 7.84455 9.41554 7.60651 9.60053H5.94019L5.70215 8.7681Z" fill="#E60112"/>
<path d="M20.677 9.3286H19.4653L18.0745 6.975C18.0028 6.8537 17.8724 6.7793 17.7316 6.7793H12.2081C12.0672 6.7793 11.9368 6.8537 11.8652 6.975L10.4744 9.3286H8.19799V8.8506C8.19799 8.05988 7.55473 7.41662 6.76401 7.41662C5.97329 7.41662 5.33003 8.05988 5.33003 8.8506V9.3286H4.3229C3.20897 9.3286 2.30273 10.2348 2.30273 11.3488V21.1702C2.30273 22.2842 3.20897 23.1904 4.3229 23.1904H20.6769C21.7909 23.1904 22.6971 22.2842 22.6971 21.1702V11.3488C22.6971 10.2348 21.7909 9.3286 20.677 9.3286ZM12.4354 7.57595H17.5043L18.5399 9.3286H11.3997L12.4354 7.57595ZM6.12669 8.8506C6.12669 8.4992 6.41261 8.21328 6.76401 8.21328C7.11542 8.21328 7.40134 8.4992 7.40134 8.8506V9.3286H6.12669V8.8506ZM21.9005 21.1702C21.9005 21.8449 21.3516 22.3938 20.677 22.3938H4.3229C3.64825 22.3938 3.09939 21.8449 3.09939 21.1702V11.3488C3.09939 10.6741 3.64825 10.1253 4.3229 10.1253H20.6769C21.3516 10.1253 21.9004 10.6741 21.9004 11.3488V21.1702H21.9005Z" fill="#131620"/>
<path d="M14.9696 5.73125C15.1896 5.73125 15.3679 5.55288 15.3679 5.33292V3.20692C15.3679 2.98697 15.1896 2.80859 14.9696 2.80859C14.7496 2.80859 14.5713 2.98693 14.5713 3.20692V5.33292C14.5713 5.55292 14.7496 5.73125 14.9696 5.73125Z" fill="#131620"/>
<path d="M16.8651 5.73082C16.967 5.73082 17.069 5.6919 17.1468 5.61415L18.6083 4.15264C18.7638 3.9971 18.7638 3.74487 18.6082 3.58929C18.4527 3.43378 18.2005 3.43378 18.0449 3.58929L16.5835 5.05083C16.4279 5.20638 16.4279 5.4586 16.5835 5.61419C16.6613 5.69194 16.7632 5.73082 16.8651 5.73082Z" fill="#131620"/>
<path d="M12.793 5.61413C12.8708 5.69189 12.9727 5.7308 13.0746 5.7308C13.1766 5.7308 13.2786 5.69189 13.3563 5.61413C13.5119 5.45859 13.5119 5.20636 13.3563 5.05078L11.8948 3.58927C11.7393 3.4338 11.4871 3.43376 11.3315 3.58927C11.176 3.74482 11.1759 3.99704 11.3315 4.15263L12.793 5.61413Z" fill="#131620"/>
<path d="M7.79971 12.5957H5.72841C5.50841 12.5957 5.33008 12.7741 5.33008 12.994C5.33008 13.214 5.50841 13.3924 5.72841 13.3924H7.79971C8.01971 13.3924 8.19804 13.214 8.19804 12.994C8.19804 12.774 8.01971 12.5957 7.79971 12.5957Z" fill="#131620"/>
<path fill-rule="evenodd" clip-rule="evenodd" d="M14.9697 20.508C17.3165 20.508 19.2189 18.6055 19.2189 16.2588C19.2189 13.912 17.3165 12.0096 14.9697 12.0096C12.623 12.0096 10.7206 13.912 10.7206 16.2588C10.7206 18.6055 12.623 20.508 14.9697 20.508ZM14.9697 21.2363C17.7188 21.2363 19.9473 19.0078 19.9473 16.2588C19.9473 13.5098 17.7188 11.2812 14.9697 11.2812C12.2207 11.2812 9.99219 13.5098 9.99219 16.2588C9.99219 19.0078 12.2207 21.2363 14.9697 21.2363Z" fill="#131620"/>
</svg>
