<svg width="22" height="18" viewBox="0 0 22 18" fill="none" xmlns="http://www.w3.org/2000/svg">
<path d="M1.05664 14.0015C1.05664 13.8477 1.56946 13.1682 1.82587 12.8477V13.6169H2.78741L5.28741 14.0015V15.7323C5.28741 16.1169 4.32587 16.3092 3.55664 16.6938C2.94125 17.0015 1.88997 16.5656 1.44126 16.3092C1.31305 15.6041 1.05664 14.1553 1.05664 14.0015Z" fill="#E60112"/>
<path d="M17.0195 14.0018C17.0195 13.848 17.5324 13.9377 17.7888 13.6172H18.7503L21.2503 14.0018V15.7326C21.2503 16.1172 20.2888 16.3095 19.5195 16.6941C18.9041 17.0018 17.8529 16.5659 17.4041 16.3095C17.2759 15.6044 17.0195 14.1556 17.0195 14.0018Z" fill="#E60112"/>
<path d="M20.8401 6.93768L20.3874 6.45839L18.7986 2.17585C18.5279 1.45248 17.8356 0.973188 17.0634 0.96875H5.71582C4.94363 0.96875 4.25133 1.45248 3.98062 2.17585L2.41405 6.40514L1.76168 7.00869C1.19364 7.49241 0.865234 8.20247 0.865234 8.94803V15.1877C0.869672 16.2084 1.69955 17.0338 2.72026 17.0338H3.89186C4.91257 17.0338 5.74245 16.2084 5.74689 15.1877V14.2823H16.7528V15.1877C16.7572 16.2084 17.5871 17.0338 18.6078 17.0338H19.7794C20.8001 17.0338 21.63 16.2084 21.6344 15.1877V8.78383C21.63 8.08709 21.346 7.42141 20.8401 6.93768ZM4.81493 2.47762C4.95695 2.10041 5.31641 1.85632 5.71582 1.85632H17.0679C17.4673 1.85632 17.8268 2.10484 17.9688 2.47762L19.3534 6.20543H18.3194C18.0753 4.54123 16.5265 3.39182 14.8623 3.64034C13.5353 3.83561 12.4924 4.87851 12.2972 6.20543H3.43032L4.81493 2.47762ZM17.414 6.20543H13.1936C13.4377 5.03827 14.5827 4.29271 15.7498 4.53679C16.5842 4.71431 17.2365 5.36667 17.414 6.20543ZM4.85931 15.1877C4.85488 15.7202 4.4244 16.1462 3.89186 16.1462H2.72026C2.18772 16.1462 1.75725 15.7202 1.75281 15.1877V14.025C2.01908 14.198 2.36967 14.2823 2.72026 14.2823H4.85931V15.1877ZM20.7469 15.1877C20.7424 15.7202 20.312 16.1462 19.7794 16.1462H18.6078C18.0753 16.1462 17.6448 15.7158 17.6404 15.1877V14.2823H19.7794C20.13 14.2823 20.4806 14.198 20.7469 14.025V15.1877ZM19.7794 13.3948H2.72026C2.19216 13.3992 1.75725 12.9776 1.75281 12.4451V8.94803C1.75281 8.45987 1.97026 7.99389 2.34304 7.6788C2.34748 7.67436 2.35636 7.66549 2.3608 7.66105L2.96434 7.093H19.7705L20.1966 7.5501C20.201 7.55898 20.2143 7.56342 20.2188 7.57229C20.5516 7.88738 20.7424 8.32673 20.7424 8.78383V12.4451H20.7469C20.7424 12.9732 20.3075 13.3992 19.7794 13.3948Z" fill="black"/>
<path d="M6.72336 8.86719H3.39496C3.15088 8.86719 2.95117 9.06689 2.95117 9.31097V11.6187C2.95117 11.8627 3.15088 12.0625 3.39496 12.0625H6.72336C6.96744 12.0625 7.16714 11.8627 7.16714 11.6187V9.31097C7.16714 9.06689 6.96744 8.86719 6.72336 8.86719ZM6.27957 11.1749H3.83874V9.75476H6.27957V11.1749Z" fill="black"/>
<path d="M19.1042 8.86719H15.7758C15.5317 8.86719 15.332 9.06689 15.332 9.31097V11.6187C15.332 11.8627 15.5317 12.0625 15.7758 12.0625H19.1042C19.3483 12.0625 19.548 11.8627 19.548 11.6187V9.31097C19.548 9.06689 19.3483 8.86719 19.1042 8.86719ZM18.6604 11.1749H16.2196V9.75476H18.6604V11.1749Z" fill="black"/>
<path d="M13.3929 10.7305H9.1059C8.86181 10.7305 8.66211 10.9302 8.66211 11.1743C8.66211 11.4183 8.86181 11.618 9.1059 11.618H13.3929C13.637 11.618 13.8367 11.4183 13.8367 11.1743C13.8367 10.9302 13.637 10.7305 13.3929 10.7305Z" fill="black"/>
<path d="M13.3929 9.35547H9.1059C8.86181 9.35547 8.66211 9.55517 8.66211 9.79925C8.66211 10.0433 8.86181 10.243 9.1059 10.243H13.3929C13.637 10.243 13.8367 10.0433 13.8367 9.79925C13.8367 9.55517 13.637 9.35547 13.3929 9.35547Z" fill="black"/>
</svg>
