<svg width="41" height="40" viewBox="0 0 41 40" fill="none" xmlns="http://www.w3.org/2000/svg">
<circle cx="20.25" cy="20" r="20" fill="#FEF1F2"/>
<path d="M10.0566 25.0015C10.0566 24.8477 10.5695 24.1682 10.8259 23.8477V24.6169H11.7874L14.2874 25.0015V26.7323C14.2874 27.1169 13.3259 27.3092 12.5566 27.6938C11.9413 28.0015 10.89 27.5656 10.4413 27.3092C10.3131 26.6041 10.0566 25.1553 10.0566 25.0015Z" fill="#E60112"/>
<path d="M26.0195 25.0018C26.0195 24.848 26.5324 24.9377 26.7888 24.6172H27.7503L30.2503 25.0018V26.7326C30.2503 27.1172 29.2888 27.3095 28.5195 27.6941C27.9041 28.0018 26.8529 27.5659 26.4041 27.3095C26.2759 26.6044 26.0195 25.1556 26.0195 25.0018Z" fill="#E60112"/>
<path d="M29.8401 17.9377L29.3874 17.4584L27.7986 13.1758C27.5279 12.4525 26.8356 11.9732 26.0634 11.9688H14.7158C13.9436 11.9688 13.2513 12.4525 12.9806 13.1758L11.414 17.4051L10.7617 18.0087C10.1936 18.4924 9.86523 19.2025 9.86523 19.948V26.1877C9.86967 27.2084 10.6996 28.0338 11.7203 28.0338H12.8919C13.9126 28.0338 14.7424 27.2084 14.7469 26.1877V25.2823H25.7528V26.1877C25.7572 27.2084 26.5871 28.0338 27.6078 28.0338H28.7794C29.8001 28.0338 30.63 27.2084 30.6344 26.1877V19.7838C30.63 19.0871 30.346 18.4214 29.8401 17.9377ZM13.8149 13.4776C13.9569 13.1004 14.3164 12.8563 14.7158 12.8563H26.0679C26.4673 12.8563 26.8268 13.1048 26.9688 13.4776L28.3534 17.2054H27.3194C27.0753 15.5412 25.5265 14.3918 23.8623 14.6403C22.5353 14.8356 21.4924 15.8785 21.2972 17.2054H12.4303L13.8149 13.4776ZM26.414 17.2054H22.1936C22.4377 16.0383 23.5827 15.2927 24.7498 15.5368C25.5842 15.7143 26.2365 16.3667 26.414 17.2054ZM13.8593 26.1877C13.8549 26.7202 13.4244 27.1462 12.8919 27.1462H11.7203C11.1877 27.1462 10.7572 26.7202 10.7528 26.1877V25.025C11.0191 25.198 11.3697 25.2823 11.7203 25.2823H13.8593V26.1877ZM29.7469 26.1877C29.7424 26.7202 29.312 27.1462 28.7794 27.1462H27.6078C27.0753 27.1462 26.6448 26.7158 26.6404 26.1877V25.2823H28.7794C29.13 25.2823 29.4806 25.198 29.7469 25.025V26.1877ZM28.7794 24.3948H11.7203C11.1922 24.3992 10.7572 23.9776 10.7528 23.4451V19.948C10.7528 19.4599 10.9703 18.9939 11.343 18.6788C11.3475 18.6744 11.3564 18.6655 11.3608 18.6611L11.9643 18.093H28.7705L29.1966 18.5501C29.201 18.559 29.2143 18.5634 29.2188 18.5723C29.5516 18.8874 29.7424 19.3267 29.7424 19.7838V23.4451H29.7469C29.7424 23.9732 29.3075 24.3992 28.7794 24.3948Z" fill="black"/>
<path d="M15.7234 19.8672H12.395C12.1509 19.8672 11.9512 20.0669 11.9512 20.311V22.6187C11.9512 22.8627 12.1509 23.0625 12.395 23.0625H15.7234C15.9674 23.0625 16.1671 22.8627 16.1671 22.6187V20.311C16.1671 20.0669 15.9674 19.8672 15.7234 19.8672ZM15.2796 22.1749H12.8387V20.7548H15.2796V22.1749Z" fill="black"/>
<path d="M28.1042 19.8672H24.7758C24.5317 19.8672 24.332 20.0669 24.332 20.311V22.6187C24.332 22.8627 24.5317 23.0625 24.7758 23.0625H28.1042C28.3483 23.0625 28.548 22.8627 28.548 22.6187V20.311C28.548 20.0669 28.3483 19.8672 28.1042 19.8672ZM27.6604 22.1749H25.2196V20.7548H27.6604V22.1749Z" fill="black"/>
<path d="M22.3929 21.7305H18.1059C17.8618 21.7305 17.6621 21.9302 17.6621 22.1743C17.6621 22.4183 17.8618 22.618 18.1059 22.618H22.3929C22.637 22.618 22.8367 22.4183 22.8367 22.1743C22.8367 21.9302 22.637 21.7305 22.3929 21.7305Z" fill="black"/>
<path d="M22.3929 20.3555H18.1059C17.8618 20.3555 17.6621 20.5552 17.6621 20.7993C17.6621 21.0433 17.8618 21.243 18.1059 21.243H22.3929C22.637 21.243 22.8367 21.0433 22.8367 20.7993C22.8367 20.5552 22.637 20.3555 22.3929 20.3555Z" fill="black"/>
</svg>
