<svg width="20" height="20" viewBox="0 0 20 20" fill="none" xmlns="http://www.w3.org/2000/svg">
<path d="M9.5 2.5H4.5C4.16667 3 3.5 4.1 3.5 4.5C3.5 4.9 4.16667 7 4.5 8L9 8.5L9.5 2.5Z" fill="#E60112"/>
<path fill-rule="evenodd" clip-rule="evenodd" d="M4.5 3.5V7.5H8.5V3.5H4.5ZM4 2C3.44772 2 3 2.44772 3 3V8C3 8.55228 3.44772 9 4 9H9C9.55228 9 10 8.55228 10 8V3C10 2.44772 9.55228 2 9 2H4Z" fill="#131620"/>
<path fill-rule="evenodd" clip-rule="evenodd" d="M12.5 3.5V7.5H16.5V3.5H12.5ZM12 2C11.4477 2 11 2.44772 11 3V8C11 8.55228 11.4477 9 12 9H17C17.5523 9 18 8.55228 18 8V3C18 2.44772 17.5523 2 17 2H12Z" fill="#131620"/>
<path fill-rule="evenodd" clip-rule="evenodd" d="M12.5 11.5V15.5H16.5V11.5H12.5ZM12 10C11.4477 10 11 10.4477 11 11V16C11 16.5523 11.4477 17 12 17H17C17.5523 17 18 16.5523 18 16V11C18 10.4477 17.5523 10 17 10H12Z" fill="#131620"/>
<path fill-rule="evenodd" clip-rule="evenodd" d="M4.5 11.5V15.5H8.5V11.5H4.5ZM4 10C3.44772 10 3 10.4477 3 11V16C3 16.5523 3.44772 17 4 17H9C9.55228 17 10 16.5523 10 16V11C10 10.4477 9.55228 10 9 10H4Z" fill="#131620"/>
</svg>
