<svg width="20" height="20" viewBox="0 0 20 20" fill="none" xmlns="http://www.w3.org/2000/svg">
<g clip-path="url(#clip0_1507_157687)">
<path d="M3.74935 11.666H1.24935L0.416016 12.0827V19.166L1.24935 19.5827H3.74935V18.7494V11.666Z" fill="#E60112"/>
<path d="M19.0625 9.84375H18.5938V9.375C18.5938 9.25068 18.5444 9.13145 18.4565 9.04354C18.3685 8.95564 18.2493 8.90625 18.125 8.90625C18.0007 8.90625 17.8815 8.95564 17.7935 9.04354C17.7056 9.13145 17.6562 9.25068 17.6562 9.375V9.84375H17.1875C17.0632 9.84375 16.944 9.89314 16.856 9.98104C16.7681 10.069 16.7188 10.1882 16.7188 10.3125C16.7188 10.4368 16.7681 10.556 16.856 10.644C16.944 10.7319 17.0632 10.7812 17.1875 10.7812H17.6562V11.25C17.6562 11.3743 17.7056 11.4935 17.7935 11.5815C17.8815 11.6694 18.0007 11.7188 18.125 11.7188C18.2493 11.7188 18.3685 11.6694 18.4565 11.5815C18.5444 11.4935 18.5938 11.3743 18.5938 11.25V10.7812H19.0625C19.1868 10.7812 19.306 10.7319 19.394 10.644C19.4819 10.556 19.5312 10.4368 19.5312 10.3125C19.5312 10.1882 19.4819 10.069 19.394 9.98104C19.306 9.89314 19.1868 9.84375 19.0625 9.84375Z" fill="#2D334D"/>
<path d="M17.3438 2.03125V2.5C17.3438 2.62432 17.3931 2.74355 17.481 2.83146C17.569 2.91936 17.6882 2.96875 17.8125 2.96875C17.9368 2.96875 18.056 2.91936 18.144 2.83146C18.2319 2.74355 18.2812 2.62432 18.2812 2.5V2.03125H18.75C18.8743 2.03125 18.9935 1.98186 19.0815 1.89396C19.1694 1.80605 19.2188 1.68682 19.2188 1.5625C19.2188 1.43818 19.1694 1.31895 19.0815 1.23104C18.9935 1.14314 18.8743 1.09375 18.75 1.09375H18.2812V0.625C18.2812 0.50068 18.2319 0.381451 18.144 0.293544C18.056 0.205636 17.9368 0.15625 17.8125 0.15625C17.6882 0.15625 17.569 0.205636 17.481 0.293544C17.3931 0.381451 17.3438 0.50068 17.3438 0.625V1.09375H16.875C16.7507 1.09375 16.6315 1.14314 16.5435 1.23104C16.4556 1.31895 16.4062 1.43818 16.4062 1.5625C16.4062 1.68682 16.4556 1.80605 16.5435 1.89396C16.6315 1.98186 16.7507 2.03125 16.875 2.03125H17.3438Z" fill="#2D334D"/>
<path d="M6.875 5.15625H7.34375V5.625C7.34375 5.74932 7.39314 5.86855 7.48104 5.95646C7.56895 6.04436 7.68818 6.09375 7.8125 6.09375C7.93682 6.09375 8.05605 6.04436 8.14396 5.95646C8.23186 5.86855 8.28125 5.74932 8.28125 5.625V5.15625H8.75C8.87432 5.15625 8.99355 5.10686 9.08146 5.01896C9.16936 4.93105 9.21875 4.81182 9.21875 4.6875C9.21875 4.56318 9.16936 4.44395 9.08146 4.35604C8.99355 4.26814 8.87432 4.21875 8.75 4.21875H8.28125V3.75C8.28125 3.62568 8.23186 3.50645 8.14396 3.41854C8.05605 3.33064 7.93682 3.28125 7.8125 3.28125C7.68818 3.28125 7.56895 3.33064 7.48104 3.41854C7.39314 3.50645 7.34375 3.62568 7.34375 3.75V4.21875H6.875C6.75068 4.21875 6.63145 4.26814 6.54354 4.35604C6.45564 4.44395 6.40625 4.56318 6.40625 4.6875C6.40625 4.81182 6.45564 4.93105 6.54354 5.01896C6.63145 5.10686 6.75068 5.15625 6.875 5.15625Z" fill="#2D334D"/>
<path d="M15.0781 2.89062C15.0685 2.5466 14.985 2.20868 14.8333 1.89977C14.4979 1.22887 13.8633 0.859375 13.0469 0.859375H10.5469C10.4226 0.859375 10.3033 0.908761 10.2154 0.996669C10.1275 1.08458 10.0781 1.2038 10.0781 1.32812C10.0781 2.12754 10.5766 2.62746 11.0159 2.87754C11.0159 2.88191 11.0156 2.88629 11.0156 2.89062C11.0156 3.42935 11.2296 3.946 11.6106 4.32694C11.9915 4.70787 12.5082 4.92188 13.0469 4.92188C13.5856 4.92188 14.1023 4.70787 14.4832 4.32694C14.8641 3.946 15.0781 3.42935 15.0781 2.89062ZM13.0469 1.79688C13.4326 1.79688 13.7121 1.91559 13.8961 2.15875L13.8201 2.13344C13.7723 2.1175 13.7223 2.10938 13.6719 2.10938H11.5742C11.4162 2.03978 11.2777 1.93247 11.1708 1.79688H13.0469ZM13.0469 3.98438C12.784 3.98403 12.53 3.88914 12.3312 3.71702C12.1325 3.5449 12.0023 3.30704 11.9645 3.04688H13.5958L14.0923 3.21234C14.0232 3.43573 13.8845 3.63117 13.6964 3.77008C13.5083 3.90899 13.2807 3.98408 13.0469 3.98438Z" fill="black"/>
<path d="M14.2969 4.92188H11.7969C11.424 4.92229 11.0666 5.07058 10.803 5.33421C10.5393 5.59785 10.391 5.95529 10.3906 6.32812V9.14062C10.3906 9.26495 10.44 9.38417 10.5279 9.47208C10.6158 9.55999 10.7351 9.60938 10.8594 9.60938H15.2344C15.3587 9.60938 15.4779 9.55999 15.5658 9.47208C15.6537 9.38417 15.7031 9.26495 15.7031 9.14062V6.32812C15.7027 5.95529 15.5544 5.59785 15.2908 5.33421C15.0272 5.07058 14.6697 4.92229 14.2969 4.92188ZM14.7656 8.67188H11.3281V6.32812C11.3283 6.20385 11.3777 6.0847 11.4656 5.99682C11.5534 5.90894 11.6726 5.85951 11.7969 5.85938H14.2969C14.4212 5.85951 14.5403 5.90894 14.6282 5.99682C14.7161 6.0847 14.7655 6.20385 14.7656 6.32812V8.67188Z" fill="black"/>
<path d="M11.875 11.4062H8.90625V9.72656C8.90625 9.38316 8.90625 8.80859 8.60766 8.29836C8.23688 7.66492 7.54879 7.34375 6.5625 7.34375C6.43818 7.34375 6.31895 7.39314 6.23104 7.48104C6.14314 7.56895 6.09375 7.68818 6.09375 7.8125V10.2188L5.25457 11.5824L4.21875 12.259V11.875C4.21875 11.7507 4.16936 11.6315 4.08146 11.5435C3.99355 11.4556 3.87432 11.4062 3.75 11.4062H0.625C0.50068 11.4062 0.381451 11.4556 0.293544 11.5435C0.205636 11.6315 0.15625 11.7507 0.15625 11.875V19.375C0.15625 19.4993 0.205636 19.6185 0.293544 19.7065C0.381451 19.7944 0.50068 19.8438 0.625 19.8438H3.75C3.83049 19.8437 3.90962 19.823 3.97973 19.7834C4.04984 19.7439 4.10857 19.6869 4.15023 19.618C4.40893 19.7662 4.7019 19.844 5 19.8438H11.25C11.5033 19.8439 11.7519 19.7757 11.9695 19.6462C12.1872 19.5167 12.3658 19.3308 12.4865 19.1081C12.6072 18.8854 12.6654 18.6343 12.6551 18.3812C12.6447 18.1282 12.5662 17.8826 12.4278 17.6705C12.4732 17.6351 12.5164 17.597 12.5572 17.5564C12.7852 17.3285 12.9279 17.0291 12.9612 16.7085C12.9946 16.3878 12.9165 16.0654 12.7403 15.7955C12.7857 15.7601 12.8289 15.722 12.8697 15.6814C13.1238 15.4274 13.2709 15.0857 13.2807 14.7265C13.2905 14.3673 13.1623 14.018 12.9225 13.7505C13.1036 13.5482 13.2222 13.2979 13.2641 13.0296C13.3061 12.7614 13.2694 12.4867 13.1587 12.2388C13.0479 11.9909 12.8678 11.7804 12.64 11.6327C12.4122 11.4849 12.1465 11.4063 11.875 11.4062ZM3.28125 18.9062H1.09375V12.3438H3.28125V18.9062ZM11.582 18.7686C11.5385 18.8123 11.4868 18.847 11.4298 18.8706C11.3728 18.8942 11.3117 18.9064 11.25 18.9062H5C4.79287 18.906 4.5943 18.8236 4.44784 18.6772C4.30137 18.5307 4.21899 18.3321 4.21875 18.125V13.3789L5.92039 12.2677C5.97399 12.2323 6.01985 12.1863 6.05518 12.1327C6.09051 12.079 6.11458 12.0188 6.12594 11.9555L6.96187 10.5974C7.00732 10.5235 7.03133 10.4384 7.03125 10.3516V8.31641C7.8898 8.46246 7.96875 9.04363 7.96875 9.72656V11.875C7.96875 11.9993 8.01814 12.1185 8.10604 12.2065C8.19395 12.2944 8.31318 12.3438 8.4375 12.3438H11.875C11.9993 12.3438 12.1185 12.3931 12.2065 12.481C12.2944 12.569 12.3438 12.6882 12.3438 12.8125C12.3438 12.9368 12.2944 13.056 12.2065 13.144C12.1185 13.2319 11.9993 13.2812 11.875 13.2812H10.9375C10.8132 13.2812 10.694 13.3306 10.606 13.4185C10.5181 13.5065 10.4688 13.6257 10.4688 13.75C10.4688 13.8743 10.5181 13.9935 10.606 14.0815C10.694 14.1694 10.8132 14.2188 10.9375 14.2188H11.875C11.9993 14.2188 12.1185 14.2681 12.2065 14.356C12.2944 14.444 12.3438 14.5632 12.3438 14.6875C12.3438 14.8118 12.2944 14.931 12.2065 15.019C12.1185 15.1069 11.9993 15.1562 11.875 15.1562H10.9375C10.8132 15.1562 10.694 15.2056 10.606 15.2935C10.5181 15.3815 10.4688 15.5007 10.4688 15.625C10.4688 15.7493 10.5181 15.8685 10.606 15.9565C10.694 16.0444 10.8132 16.0938 10.9375 16.0938H11.5625C11.6868 16.0938 11.806 16.1431 11.894 16.231C11.9819 16.319 12.0312 16.4382 12.0312 16.5625C12.0312 16.6868 11.9819 16.806 11.894 16.894C11.806 16.9819 11.6868 17.0312 11.5625 17.0312H10.9375C10.8132 17.0312 10.694 17.0806 10.606 17.1685C10.5181 17.2565 10.4688 17.3757 10.4688 17.5C10.4688 17.6243 10.5181 17.7435 10.606 17.8315C10.694 17.9194 10.8132 17.9688 10.9375 17.9688H11.25C11.3427 17.9687 11.4333 17.9962 11.5104 18.0476C11.5875 18.099 11.6476 18.1722 11.6831 18.2578C11.7186 18.3434 11.728 18.4376 11.71 18.5285C11.692 18.6194 11.6475 18.7029 11.582 18.7686Z" fill="black"/>
<path d="M2.1875 18.6328C2.44638 18.6328 2.65625 18.4229 2.65625 18.1641C2.65625 17.9052 2.44638 17.6953 2.1875 17.6953C1.92862 17.6953 1.71875 17.9052 1.71875 18.1641C1.71875 18.4229 1.92862 18.6328 2.1875 18.6328Z" fill="black"/>
</g>
<defs>
<clipPath id="clip0_1507_157687">
<rect width="20" height="20" fill="white"/>
</clipPath>
</defs>
</svg>
