<svg width="20" height="20" viewBox="0 0 20 20" fill="none" xmlns="http://www.w3.org/2000/svg">
<path d="M7.85752 12.1421L12.1408 7.85876M3.99446 5.88068C3.99446 4.83985 4.83863 3.99568 5.87863 3.99568H6.73613C7.23279 3.99568 7.71029 3.79902 8.06363 3.44818L8.66283 2.84818C9.39699 2.11068 10.5903 2.10735 11.3278 2.84152L11.3353 2.84818L11.9353 3.44818C12.2878 3.79902 12.7653 3.99568 13.2628 3.99568H14.1195C15.1603 3.99568 16.0045 4.83985 16.0045 5.88068V6.73652C16.0045 7.23485 16.2012 7.71152 16.552 8.06485L17.152 8.66484C17.8895 9.39901 17.8937 10.5915 17.1595 11.3298L17.152 11.3373L16.552 11.9373C16.2012 12.289 16.0045 12.7673 16.0045 13.264V14.1215C16.0045 15.1623 15.1603 16.0057 14.1195 16.0057H13.2628C12.7653 16.0057 12.2878 16.2032 11.9353 16.554L11.3353 17.1532C10.602 17.8915 9.40866 17.8948 8.67033 17.1607C8.66783 17.1582 8.66533 17.1557 8.66283 17.1532L8.06363 16.554C7.71029 16.2032 7.23279 16.0057 6.73613 16.0057H5.87863C4.83863 16.0057 3.99446 15.1623 3.99446 14.1215V13.264C3.99446 12.7673 3.79696 12.289 3.44613 11.9373L2.84696 11.3373C2.10863 10.6032 2.10529 9.40984 2.83946 8.67234L2.84696 8.66484L3.44613 8.06485C3.79696 7.71152 3.99446 7.23485 3.99446 6.73652V5.88068Z" stroke="#131620" stroke-width="1.7" stroke-linecap="round" stroke-linejoin="round"/>
<path d="M12.5797 13.3327C12.3789 13.3327 12.1881 13.2522 12.0476 13.1115C11.9773 13.0411 11.9271 12.9506 11.8869 12.8601C11.8468 12.7696 11.8267 12.6801 11.8267 12.5786C11.8267 12.478 11.8468 12.3775 11.8869 12.287C11.9271 12.1965 11.9773 12.116 12.0476 12.0457C12.3287 11.7641 12.8307 11.7641 13.1118 12.0457C13.1821 12.116 13.2423 12.1965 13.2825 12.287C13.3126 12.3775 13.3327 12.478 13.3327 12.5786C13.3327 12.6801 13.3126 12.7696 13.2825 12.8601C13.2423 12.9506 13.1821 13.0411 13.1118 13.1115C12.9712 13.2522 12.7805 13.3327 12.5797 13.3327ZM7.41901 8.16491C7.31861 8.16491 7.22825 8.14379 7.13789 8.10357C7.04753 8.06335 6.95717 8.01408 6.88689 7.94373C6.81661 7.86329 6.76641 7.78285 6.72626 7.69236C6.6861 7.60086 6.66602 7.51137 6.66602 7.41083C6.66602 7.30927 6.6861 7.20973 6.72626 7.11924C6.76641 7.02874 6.81661 6.93825 6.88689 6.87792C7.17805 6.59538 7.67 6.59538 7.95112 6.87792C8.09167 7.01768 8.17199 7.20973 8.17199 7.41083C8.17199 7.51137 8.16195 7.60086 8.12179 7.69236C8.08163 7.78285 8.02139 7.86329 7.95112 7.94373C7.88084 8.01408 7.80052 8.06335 7.71016 8.10357C7.6198 8.14379 7.5194 8.16491 7.41901 8.16491Z" fill="#E60112"/>
</svg>
