<svg width="22" height="22" viewBox="0 0 22 22" fill="none" xmlns="http://www.w3.org/2000/svg">
<path d="M5.7234 14.4148L6.52739 13.0078H7.13039L7.53239 14.2138L6.32639 19.4398C6.0584 19.9088 5.442 20.887 5.1204 21.0478C4.7988 21.2086 4.45041 20.5788 4.31641 20.2438L5.7234 14.4148Z" fill="#E60112"/>
<path d="M14.3672 15.6209L15.7742 15.4199H16.1762L16.7792 17.8319L17.3822 20.2439L16.7792 20.8469H15.7742L15.3722 18.8369L14.3672 15.6209Z" fill="#E60112"/>
<path fill-rule="evenodd" clip-rule="evenodd" d="M10.7496 0.546875C13.5413 0.546875 16.166 1.63402 18.1401 3.60813C20.1142 5.5822 21.2014 8.20689 21.2013 10.9987C21.2013 12.5628 20.8419 14.134 20.1619 15.5425C19.5193 16.8734 18.5848 18.0702 17.4508 19.0185L17.6894 19.9088C17.8641 20.5611 17.4756 21.234 16.8233 21.4088C16.7184 21.4369 16.6119 21.4508 16.506 21.4508C16.2937 21.4508 16.0838 21.3949 15.8944 21.2856C15.6105 21.1217 15.4077 20.8579 15.3232 20.5427L15.2885 20.413C13.8767 21.0929 12.318 21.4504 10.7496 21.4504C9.17689 21.4504 7.61778 21.0937 6.21014 20.4152L6.17597 20.5427C6.02953 21.0892 5.53335 21.4506 4.99264 21.4506C4.88796 21.4506 4.78169 21.4371 4.6759 21.4087C4.3608 21.3243 4.09698 21.1214 3.93305 20.8376C3.76913 20.5537 3.72541 20.2238 3.80984 19.9087L4.04843 19.0182C1.66197 17.0239 0.297852 14.1153 0.297852 10.9986C0.297852 8.20689 1.385 5.5822 3.35911 3.60813C5.33314 1.63402 7.95783 0.546875 10.7496 0.546875ZM4.64014 20.4293C4.69501 20.5243 4.78271 20.592 4.88718 20.62C5.10467 20.6782 5.32897 20.5488 5.38727 20.3314L7.07796 14.0217C7.10593 13.9173 7.09115 13.8074 7.03628 13.7124C6.98145 13.6174 6.89371 13.5497 6.78924 13.5217H6.7892C6.75466 13.5124 6.7195 13.5078 6.68456 13.5078C6.61368 13.5078 6.5435 13.5266 6.47989 13.5633C6.38488 13.6182 6.31715 13.7059 6.28915 13.8103L4.5985 20.1201C4.57053 20.2245 4.58531 20.3343 4.64014 20.4293ZM8.71199 11.0781L8.81765 10.6837L6.45147 10.0497L6.34581 10.4441C6.31785 10.5486 6.33263 10.6584 6.3875 10.7534C6.44237 10.8484 6.53007 10.9161 6.6345 10.9441L7.42295 11.1554L7.42324 11.1554L7.42352 11.1555L8.21198 11.3668C8.4293 11.4249 8.65369 11.2956 8.71199 11.0781ZM6.42555 19.6112C7.75892 20.281 9.24739 20.6338 10.7496 20.6338C12.2472 20.6338 13.7353 20.2803 15.0731 19.6091L14.5742 17.7473C13.4091 18.4085 12.0979 18.7558 10.7496 18.7558C9.39927 18.7558 8.08778 18.4087 6.92478 17.7481L6.42555 19.6112ZM14.0346 15.2687C14.1295 15.3235 14.2393 15.3383 14.3439 15.3104L15.527 14.9934L13.6356 7.93458C13.2816 8.11136 12.986 8.38902 12.7823 8.74181C12.5087 9.21569 12.4354 9.76526 12.5758 10.2894L13.8439 15.0217C13.8719 15.1261 13.9396 15.2139 14.0346 15.2687ZM16.3026 20.5784C16.3976 20.6332 16.5074 20.648 16.612 20.62C16.8294 20.5617 16.9589 20.3374 16.9007 20.12L15.7384 15.7821L14.9496 15.9934L16.1119 20.3314C16.1399 20.4358 16.2077 20.5236 16.3026 20.5784ZM16.6509 16.0328L17.2158 18.1413C19.2369 16.3162 20.3848 13.7464 20.3848 10.9986C20.3848 5.68578 16.0625 1.36342 10.7496 1.36342C5.43672 1.36342 1.11435 5.68578 1.11452 10.9986C1.11452 13.7435 2.26253 16.3135 4.28364 18.1408L4.84848 16.0328C3.65029 14.6297 2.9926 12.8499 2.9926 10.9986C2.9926 7.4498 5.39115 4.35898 8.82549 3.48222C8.8859 3.46686 8.94657 3.4658 9.00393 3.47691C9.79853 3.31912 11.1951 3.17947 12.5225 3.47249C12.5717 3.46642 12.6227 3.46924 12.6736 3.48222C16.1081 4.35886 18.5068 7.44971 18.5068 10.9986C18.5068 12.8493 17.849 14.6287 16.6509 16.0328ZM12.3546 4.22315C12.3898 4.24538 12.4291 4.26255 12.4716 4.27341C15.5443 5.0577 17.6902 7.82324 17.6902 10.9987C17.6902 12.4603 17.2316 13.8721 16.3868 15.0472L14.308 7.28922C14.2496 7.07145 14.0257 6.94207 13.808 7.00054C12.2858 7.4084 11.3793 8.97857 11.7872 10.5007L13.0552 15.233C13.1396 15.5482 13.3425 15.812 13.6263 15.9759C13.7874 16.0689 13.9632 16.1232 14.1428 16.1374L14.355 16.9292C13.2677 17.5908 12.0273 17.9393 10.7496 17.9393C9.4697 17.9393 8.22892 17.591 7.14406 16.9299L7.8667 14.233C7.95113 13.9179 7.90737 13.588 7.74349 13.3042C7.65048 13.1431 7.52531 13.0082 7.37686 12.9061L7.60631 12.0499L8.0007 12.1556C8.10648 12.1839 8.21271 12.1974 8.31739 12.1974C8.85811 12.1974 9.35428 11.836 9.50073 11.2895L9.71127 10.5037L9.71209 10.5008L9.71286 10.4978L10.3461 8.13459C10.4045 7.91678 10.2753 7.69292 10.0574 7.63454C9.83959 7.57616 9.61582 7.70546 9.55743 7.92323L9.02909 9.89505L8.24039 9.68373L8.76874 7.71191C8.82712 7.49409 8.69786 7.27024 8.48005 7.21185C8.26215 7.15339 8.03842 7.28277 7.98004 7.50054L7.4517 9.47237L6.66296 9.26101L7.19126 7.28922C7.24964 7.07141 7.12038 6.84756 6.90257 6.78917C6.68468 6.73075 6.46095 6.86009 6.40256 7.07786L5.76966 9.43991L5.76856 9.44399L5.7675 9.44812L5.55728 10.2327C5.47285 10.5479 5.51657 10.8778 5.68054 11.1617C5.84446 11.4455 6.10824 11.6484 6.42334 11.7328L6.81773 11.8385L6.58829 12.6947C6.40869 12.7089 6.23284 12.7631 6.07182 12.8561C5.78791 13.02 5.58508 13.2838 5.50065 13.5989L5.11255 15.0473C4.2678 13.8728 3.80914 12.4607 3.80914 10.9986C3.80914 7.82328 5.95502 5.05778 9.02746 4.27341C9.05962 4.2652 9.08991 4.25338 9.118 4.23849C9.82727 4.09319 11.1384 3.95506 12.3546 4.22315Z" fill="#3A0005"/>
</svg>
