<svg width="41" height="40" viewBox="0 0 41 40" fill="none" xmlns="http://www.w3.org/2000/svg">
<circle cx="20.75" cy="20" r="20" fill="#FEF1F2"/>
<path d="M15.7234 23.4148L16.5274 22.0078H17.1304L17.5324 23.2138L16.3264 28.4398C16.0584 28.9088 15.442 29.887 15.1204 30.0478C14.7988 30.2086 14.4504 29.5788 14.3164 29.2438L15.7234 23.4148Z" fill="#E60112"/>
<path d="M24.3672 24.6209L25.7742 24.4199H26.1762L26.7792 26.8319L27.3822 29.2439L26.7792 29.8469H25.7742L25.3722 27.8369L24.3672 24.6209Z" fill="#E60112"/>
<path fill-rule="evenodd" clip-rule="evenodd" d="M20.7496 9.54688C23.5413 9.54688 26.166 10.634 28.1401 12.6081C30.1142 14.5822 31.2014 17.2069 31.2013 19.9987C31.2013 21.5628 30.8419 23.134 30.1619 24.5425C29.5193 25.8734 28.5848 27.0702 27.4508 28.0185L27.6894 28.9088C27.8641 29.5611 27.4756 30.234 26.8233 30.4088C26.7184 30.4369 26.6119 30.4508 26.506 30.4508C26.2937 30.4508 26.0838 30.3949 25.8944 30.2856C25.6105 30.1217 25.4077 29.8579 25.3232 29.5427L25.2885 29.413C23.8767 30.0929 22.318 30.4504 20.7496 30.4504C19.1769 30.4504 17.6178 30.0937 16.2101 29.4152L16.176 29.5427C16.0295 30.0892 15.5334 30.4506 14.9926 30.4506C14.888 30.4506 14.7817 30.4371 14.6759 30.4087C14.3608 30.3243 14.097 30.1214 13.9331 29.8376C13.7691 29.5537 13.7254 29.2238 13.8098 28.9087L14.0484 28.0182C11.662 26.0239 10.2979 23.1153 10.2979 19.9986C10.2979 17.2069 11.385 14.5822 13.3591 12.6081C15.3331 10.634 17.9578 9.54688 20.7496 9.54688ZM14.6401 29.4293C14.695 29.5243 14.7827 29.592 14.8872 29.62C15.1047 29.6782 15.329 29.5488 15.3873 29.3314L17.078 23.0217C17.1059 22.9173 17.0912 22.8074 17.0363 22.7124C16.9814 22.6174 16.8937 22.5497 16.7892 22.5217H16.7892C16.7547 22.5124 16.7195 22.5078 16.6846 22.5078C16.6137 22.5078 16.5435 22.5266 16.4799 22.5633C16.3849 22.6182 16.3172 22.7059 16.2891 22.8103L14.5985 29.1201C14.5705 29.2245 14.5853 29.3343 14.6401 29.4293ZM18.712 20.0781L18.8176 19.6837L16.4515 19.0497L16.3458 19.4441C16.3178 19.5486 16.3326 19.6584 16.3875 19.7534C16.4424 19.8484 16.5301 19.9161 16.6345 19.9441L17.423 20.1554L17.4232 20.1554L17.4235 20.1555L18.212 20.3668C18.4293 20.4249 18.6537 20.2956 18.712 20.0781ZM16.4255 28.6112C17.7589 29.281 19.2474 29.6338 20.7496 29.6338C22.2472 29.6338 23.7353 29.2803 25.0731 28.6091L24.5742 26.7473C23.4091 27.4085 22.0979 27.7558 20.7496 27.7558C19.3993 27.7558 18.0878 27.4087 16.9248 26.7481L16.4255 28.6112ZM24.0346 24.2687C24.1295 24.3235 24.2393 24.3383 24.3439 24.3104L25.527 23.9934L23.6356 16.9346C23.2816 17.1114 22.986 17.389 22.7823 17.7418C22.5087 18.2157 22.4354 18.7653 22.5758 19.2894L23.8439 24.0217C23.8719 24.1261 23.9396 24.2139 24.0346 24.2687ZM26.3026 29.5784C26.3976 29.6332 26.5074 29.648 26.612 29.62C26.8294 29.5617 26.9589 29.3374 26.9007 29.12L25.7384 24.7821L24.9496 24.9934L26.1119 29.3314C26.1399 29.4358 26.2077 29.5236 26.3026 29.5784ZM26.6509 25.0328L27.2158 27.1413C29.2369 25.3162 30.3848 22.7464 30.3848 19.9986C30.3848 14.6858 26.0625 10.3634 20.7496 10.3634C15.4367 10.3634 11.1144 14.6858 11.1145 19.9986C11.1145 22.7435 12.2625 25.3135 14.2836 27.1408L14.8485 25.0328C13.6503 23.6297 12.9926 21.8499 12.9926 19.9986C12.9926 16.4498 15.3912 13.359 18.8255 12.4822C18.8859 12.4669 18.9466 12.4658 19.0039 12.4769C19.7985 12.3191 21.1951 12.1795 22.5225 12.4725C22.5717 12.4664 22.6227 12.4692 22.6736 12.4822C26.1081 13.3589 28.5068 16.4497 28.5068 19.9986C28.5068 21.8493 27.849 23.6287 26.6509 25.0328ZM22.3546 13.2232C22.3898 13.2454 22.4291 13.2626 22.4716 13.2734C25.5443 14.0577 27.6902 16.8232 27.6902 19.9987C27.6902 21.4603 27.2316 22.8721 26.3868 24.0472L24.308 16.2892C24.2496 16.0715 24.0257 15.9421 23.808 16.0005C22.2858 16.4084 21.3793 17.9786 21.7872 19.5007L23.0552 24.233C23.1396 24.5482 23.3425 24.812 23.6263 24.9759C23.7874 25.0689 23.9632 25.1232 24.1428 25.1374L24.355 25.9292C23.2677 26.5908 22.0273 26.9393 20.7496 26.9393C19.4697 26.9393 18.2289 26.591 17.1441 25.9299L17.8667 23.233C17.9511 22.9179 17.9074 22.588 17.7435 22.3042C17.6505 22.1431 17.5253 22.0082 17.3769 21.9061L17.6063 21.0499L18.0007 21.1556C18.1065 21.1839 18.2127 21.1974 18.3174 21.1974C18.8581 21.1974 19.3543 20.836 19.5007 20.2895L19.7113 19.5037L19.7121 19.5008L19.7129 19.4978L20.3461 17.1346C20.4045 16.9168 20.2753 16.6929 20.0574 16.6345C19.8396 16.5762 19.6158 16.7055 19.5574 16.9232L19.0291 18.8951L18.2404 18.6837L18.7687 16.7119C18.8271 16.4941 18.6979 16.2702 18.48 16.2119C18.2622 16.1534 18.0384 16.2828 17.98 16.5005L17.4517 18.4724L16.663 18.261L17.1913 16.2892C17.2496 16.0714 17.1204 15.8476 16.9026 15.7892C16.6847 15.7307 16.4609 15.8601 16.4026 16.0779L15.7697 18.4399L15.7686 18.444L15.7675 18.4481L15.5573 19.2327C15.4728 19.5479 15.5166 19.8778 15.6805 20.1617C15.8445 20.4455 16.1082 20.6484 16.4233 20.7328L16.8177 20.8385L16.5883 21.6947C16.4087 21.7089 16.2328 21.7631 16.0718 21.8561C15.7879 22.02 15.5851 22.2838 15.5007 22.5989L15.1125 24.0473C14.2678 22.8728 13.8091 21.4607 13.8091 19.9986C13.8091 16.8233 15.955 14.0578 19.0275 13.2734C19.0596 13.2652 19.0899 13.2534 19.118 13.2385C19.8273 13.0932 21.1384 12.9551 22.3546 13.2232Z" fill="#3A0005"/>
</svg>
