<svg width="20" height="20" viewBox="0 0 20 20" fill="none" xmlns="http://www.w3.org/2000/svg">
<path d="M10.416 3.33464L11.666 1.66797L14.166 3.33464L15.8327 5.41797L13.3327 7.5013L10.8327 5.0013L10.416 3.33464Z" fill="#E60112"/>
<path d="M4.16538 14.1722H7.69871C7.80838 14.1728 7.9171 14.1518 8.01863 14.1103C8.12016 14.0688 8.21251 14.0077 8.29038 13.9305L14.057 8.15548L16.4237 5.83882C16.5018 5.76135 16.5638 5.66918 16.6061 5.56763C16.6484 5.46608 16.6702 5.35716 16.6702 5.24715C16.6702 5.13714 16.6484 5.02822 16.6061 4.92667C16.5638 4.82512 16.5018 4.73295 16.4237 4.65548L12.8904 1.08048C12.8129 1.00238 12.7207 0.940381 12.6192 0.898073C12.5176 0.855766 12.4087 0.833984 12.2987 0.833984C12.1887 0.833984 12.0798 0.855766 11.9782 0.898073C11.8767 0.940381 11.7845 1.00238 11.707 1.08048L9.35704 3.43882L3.57371 9.21382C3.49648 9.29168 3.43537 9.38403 3.3939 9.48556C3.35243 9.58709 3.33141 9.69581 3.33205 9.80548V13.3388C3.33205 13.5598 3.41984 13.7718 3.57612 13.9281C3.7324 14.0844 3.94436 14.1722 4.16538 14.1722ZM12.2987 2.84715L14.657 5.20548L13.4737 6.38882L11.1154 4.03048L12.2987 2.84715ZM4.99871 10.1472L9.94038 5.20548L12.2987 7.56382L7.35704 12.5055H4.99871V10.1472Z" fill="#2D334D"/>
<path d="M2.49935 15.834H17.4993C17.7204 15.834 17.9323 15.9218 18.0886 16.0781C18.2449 16.2343 18.3327 16.4463 18.3327 16.6673C18.3327 16.8883 18.2449 17.1003 18.0886 17.2566C17.9323 17.4129 17.7204 17.5007 17.4993 17.5007H2.49935C2.27834 17.5007 2.06637 17.4129 1.91009 17.2566C1.75381 17.1003 1.66602 16.8883 1.66602 16.6673C1.66602 16.4463 1.75381 16.2343 1.91009 16.0781C2.06637 15.9218 2.27834 15.834 2.49935 15.834Z" fill="#2D334D"/>
</svg>
