<svg width="10" height="11" viewBox="0 0 10 11" fill="none" xmlns="http://www.w3.org/2000/svg">
<g clip-path="url(#clip0_1105_151369)">
<path d="M7.81425 4.92741C7.80437 4.9071 7.78714 4.85931 7.76564 4.7996C7.69395 4.60041 7.55671 4.62232 7.55671 4.62232C7.55671 4.62232 7.58455 4.66896 7.53809 4.7899C7.52409 4.87257 7.05146 5.48687 6.96597 5.32859C6.95873 5.31521 6.95685 5.2996 6.9586 5.28448C6.98533 5.0534 6.99427 4.81687 6.98575 4.57827C6.94764 3.47537 6.54306 2.32416 5.84657 1.41963C5.84456 1.41708 5.84274 1.41471 5.84073 1.41233C5.82983 1.39822 5.81885 1.38417 5.80781 1.37016C5.80779 1.37014 5.80777 1.37013 5.80777 1.37011V1.37002C5.77803 1.33244 5.7478 1.29526 5.71706 1.25854C5.6374 1.16337 5.59694 1.24397 5.51017 1.15505C5.48191 1.12606 5.43232 1.14338 5.42776 1.18368C5.32712 2.0893 5.11522 2.43718 4.88621 2.71833C4.59607 3.02898 4.15517 3.39385 3.97374 3.88213C3.88416 4.08203 3.73153 4.27479 3.68493 4.47141C3.6774 4.51187 3.62332 4.51575 3.60193 4.49167C3.42289 4.31331 3.28937 3.96299 3.236 3.65167C3.21795 3.54639 3.15188 3.6288 3.1535 3.54061C3.15313 3.51217 3.11886 3.49813 3.09862 3.51837C2.16784 4.44368 1.87753 5.73017 2.04655 7.0803C2.07408 7.30456 2.08276 7.52959 2.13965 7.74128C2.32801 8.47409 2.83723 9.04228 3.42447 9.45437C3.9537 9.82576 4.53383 10.0817 5.21719 10.0195C5.21697 10.0194 5.21674 10.0194 5.21652 10.0194C6.72108 9.90764 7.85394 8.79914 8.06586 7.30405C8.21601 6.36147 8.01153 5.49095 7.81425 4.92741Z" fill="#F9AF38"/>
<path d="M5.14732 10.0255C3.73154 10.1185 2.40292 9.11588 2.05066 7.74514C1.99378 7.53346 1.94291 7.29643 1.91538 7.07217C1.74636 5.72203 2.22479 4.26104 3.15557 3.33572C3.17581 3.31549 3.21009 3.32953 3.21045 3.35797C3.20881 3.44622 3.21774 3.54686 3.23579 3.65225C2.4939 4.57428 2.12925 5.86734 2.28003 7.07217C2.30756 7.29643 2.35843 7.53346 2.41532 7.74514C2.73713 8.99736 3.87394 9.94255 5.14732 10.0255Z" fill="#F48931"/>
<path d="M3.97373 3.68164C3.94565 3.73597 3.91976 3.79031 3.89569 3.84409L3.89551 3.84373C3.91958 3.78994 3.94547 3.73579 3.97373 3.68164Z" fill="#F48931"/>
<path d="M6.77426 6.5678C6.73405 6.46571 6.72304 6.43541 6.69823 6.38469C6.68938 6.36662 6.66271 6.37012 6.65877 6.38981C6.64546 6.4562 6.64234 6.50222 6.60823 6.59106C6.55481 6.73346 6.44257 6.85916 6.33377 6.9621C6.31931 6.97603 6.29855 6.97217 6.28779 6.95907C6.28287 6.95036 6.28006 6.94194 6.28086 6.93523C6.3834 6.08122 6.11152 5.11581 5.55401 4.39177C5.55272 4.39009 5.55148 4.38863 5.55022 4.38708C5.54781 4.38397 5.54541 4.38087 5.543 4.37777C5.46885 4.2825 5.40892 4.23216 5.32497 4.14621C5.30639 4.12717 5.274 4.13848 5.27102 4.16495C5.20511 4.75807 5.0994 5.07125 4.94943 5.25535C4.80341 5.43476 4.65354 5.48473 4.4861 5.74074C4.3331 5.97487 4.25092 6.18467 4.20454 6.37696C4.19852 6.40186 4.10059 6.42323 4.08387 6.40381C4.03616 6.34864 3.97953 6.26924 3.9313 6.16046C3.89912 6.08784 3.87671 6.01582 3.86118 5.94819C3.8349 5.83373 3.79747 5.81382 3.79678 5.74291C3.79656 5.72424 3.77404 5.71511 3.76081 5.72834C3.11167 6.37366 2.91973 7.3063 3.09666 8.23594C3.34309 9.53072 4.33377 10.034 5.05183 10.0227C5.08323 10.0223 5.12327 10.0286 5.16524 10.0253C5.60855 9.99097 6.58757 9.76384 6.9467 8.52627C7.15228 7.81791 6.99812 7.13591 6.85001 6.70949C6.83109 6.65486 6.77426 6.5678 6.77426 6.5678Z" fill="#FD632D"/>
<path d="M4.26835 5.99805L4.20508 6.16213C4.22313 6.1089 4.2441 6.05384 4.26835 5.99805Z" fill="#DC4955"/>
<path d="M5.17839 10.0248C5.13226 10.0299 5.08799 10.0288 5.05517 10.0312C4.33698 10.0387 3.25323 9.55987 3.0069 8.26516C2.82986 7.33547 3.1431 6.29219 3.79219 5.64693C3.8055 5.63362 3.82792 5.64274 3.82811 5.66152C3.82884 5.73245 3.8354 5.83419 3.86166 5.94869C3.39125 6.59012 3.18358 7.4693 3.33509 8.26516C3.55863 9.43935 4.47479 9.94695 5.17839 10.0248Z" fill="#DC4955"/>
<path d="M4.62304 9.09246C4.60493 9.09246 4.58652 9.08883 4.56883 9.08119C4.49951 9.05121 4.46762 8.97072 4.4976 8.90141L5.27569 7.10202C5.30567 7.03272 5.38616 7.00083 5.45547 7.03079C5.52479 7.06076 5.55669 7.14126 5.5267 7.21056L4.7486 9.00995C4.72629 9.06159 4.67591 9.09246 4.62304 9.09246Z" fill="#F5FCFF"/>
<path d="M4.31481 7.97635C4.31322 7.97635 4.31164 7.97635 4.31003 7.97633C4.04981 7.97352 3.84065 7.73516 3.84378 7.44501C3.8469 7.15657 4.05866 6.92383 4.31676 6.92383C4.31831 6.92383 4.31984 6.92383 4.32139 6.92385C4.45137 6.92525 4.57172 6.98394 4.6603 7.08914C4.74388 7.18842 4.78911 7.31842 4.78764 7.45518C4.78616 7.59195 4.73815 7.72093 4.65242 7.81838C4.56272 7.92037 4.44298 7.97635 4.31481 7.97635ZM4.31674 7.19732C4.20809 7.19732 4.11875 7.3093 4.11726 7.44796C4.11576 7.58733 4.20355 7.70169 4.31298 7.70286C4.36221 7.7041 4.40969 7.68027 4.44707 7.63777C4.48957 7.58945 4.51338 7.52356 4.51416 7.45223C4.51493 7.3809 4.49252 7.31452 4.4511 7.26531C4.41463 7.22201 4.36754 7.19787 4.31845 7.19734C4.31787 7.19732 4.31731 7.19732 4.31674 7.19732Z" fill="#F5FCFF"/>
<path d="M5.68283 9.22635C5.68128 9.22635 5.67976 9.22635 5.6782 9.22633C5.418 9.22352 5.20883 8.98517 5.21195 8.69501C5.21508 8.40655 5.42682 8.17383 5.68492 8.17383C5.68647 8.17383 5.68802 8.17383 5.68957 8.17385C5.94977 8.17665 6.15894 8.41501 6.15582 8.70517V8.70518C6.15268 8.99361 5.94093 9.22635 5.68283 9.22635ZM5.68491 8.44732C5.57624 8.44732 5.48693 8.5593 5.48544 8.69796C5.48393 8.83734 5.57172 8.95167 5.68115 8.95286C5.78993 8.95454 5.88083 8.8416 5.88233 8.70221V8.70223C5.88384 8.56284 5.79605 8.4485 5.68662 8.44732C5.68605 8.44732 5.68547 8.44732 5.68491 8.44732ZM6.01908 8.70371H6.01926H6.01908Z" fill="#F5FCFF"/>
<path d="M4.0103 1.75841C3.94746 2.09152 3.73134 2.26227 3.63715 2.33797C3.61967 2.35203 3.59396 2.34705 3.58278 2.32762C3.52253 2.22278 3.37956 1.99122 3.44238 1.65831C3.4566 1.5829 3.44949 1.49812 3.48035 1.43301C3.58588 1.21046 3.76298 1.05294 3.83585 0.994362C3.85334 0.980304 3.87905 0.985282 3.89022 1.00472C3.93768 1.08728 4.04821 1.30425 4.06234 1.55533C4.06615 1.62305 4.02363 1.68768 4.0103 1.75841Z" fill="#FD632D"/>
<path d="M4.0498 1.76444C3.98708 2.09756 3.71869 2.33859 3.62443 2.41426C3.60692 2.4283 3.58122 2.42338 3.57009 2.40405C3.50993 2.29921 3.34784 1.97758 3.41074 1.64465C3.42624 1.56242 3.45432 1.48585 3.48932 1.41602C3.50336 1.6669 3.61385 1.88387 3.66126 1.96646C3.67238 1.98579 3.69809 1.99071 3.71559 1.97667C3.78652 1.91979 3.95626 1.769 4.06238 1.55586C4.06639 1.62369 4.06311 1.69388 4.0498 1.76444Z" fill="#DC4955"/>
<path d="M8.05268 2.81388C8.11824 3.1156 7.96543 3.35113 7.90682 3.44698C7.89602 3.46463 7.87263 3.4697 7.85551 3.4581C7.7624 3.39504 7.53792 3.2522 7.47235 2.95043C7.46143 2.90018 7.42753 2.84648 7.42774 2.79718C7.42876 2.55051 7.54986 2.32772 7.5987 2.24783C7.6095 2.23018 7.63289 2.22511 7.65001 2.2367C7.72097 2.28478 7.89666 2.41677 8.00522 2.61048C8.03909 2.67092 8.03709 2.74214 8.05268 2.81388Z" fill="#FD632D"/>
<path d="M7.92632 3.50911C7.91557 3.52662 7.89204 3.53172 7.87509 3.52024C7.78192 3.45715 7.50861 3.24948 7.44297 2.94772C7.42947 2.88573 7.42565 2.82356 7.42875 2.76339C7.53723 2.95721 7.71282 3.08921 7.78392 3.13735C7.80088 3.14883 7.8244 3.14373 7.83516 3.12622C7.88165 3.05019 7.99397 2.84416 8.00509 2.61133C8.039 2.67168 8.06635 2.73805 8.08203 2.80988C8.14749 3.11164 7.98485 3.41321 7.92632 3.50911Z" fill="#DC4955"/>
<path d="M5.5429 4.37754C5.46304 4.81166 5.32319 5.06473 5.19629 5.22062C5.05024 5.40003 4.91514 5.4582 4.74758 5.71418C4.66735 5.83689 4.5946 6.02232 4.54209 6.17146C4.49086 6.3166 4.35357 6.41359 4.1995 6.41414L4.10742 6.41451C4.16978 6.38635 4.16289 6.23728 4.20444 6.162C4.25875 6.01151 4.32955 5.84714 4.41939 5.71418C4.58695 5.4582 4.72205 5.40003 4.8681 5.22062C5.01797 5.03647 5.18571 4.71703 5.25172 4.12392C5.25463 4.09749 5.28709 4.08618 5.30569 4.10514C5.37898 4.18044 5.449 4.25957 5.51482 4.34199C5.5243 4.35384 5.5336 4.36569 5.5429 4.37754Z" fill="#DC4955"/>
<path d="M6.8502 6.70905C6.8481 6.71297 6.84581 6.71703 6.84336 6.72119C6.75163 6.87741 6.58106 6.97032 6.3999 6.97032H6.31543L6.31561 6.97014C6.32218 6.96959 6.32874 6.96704 6.33421 6.96157C6.44306 6.85874 6.53167 6.71233 6.58509 6.56993C6.61317 6.49664 6.6325 6.42717 6.64599 6.36773C6.64599 6.36755 6.64599 6.36755 6.64599 6.36737C6.64873 6.35497 6.65128 6.34275 6.65365 6.33145C6.65766 6.31176 6.68428 6.30811 6.69303 6.32616C6.71801 6.37703 6.75448 6.45616 6.79477 6.55808V6.55826C6.81282 6.60403 6.8316 6.65453 6.8502 6.70905Z" fill="#DC4955"/>
<path d="M5.38532 1.0118C5.28468 1.91742 5.02851 2.40515 4.79951 2.6863C4.50943 2.99699 4.07731 3.35581 3.8959 3.84408L3.89571 3.84372C3.85369 3.93771 3.81525 4.03883 3.7811 4.14005L3.78085 4.13963C3.77561 4.15541 3.77075 4.17118 3.76535 4.18686C3.76539 4.18693 3.76542 4.18702 3.76546 4.18709C3.73379 4.28526 3.70648 4.38257 3.68513 4.47238C3.68111 4.49463 3.6627 4.50593 3.64355 4.50739V4.50757H3.77168C3.93254 4.50757 4.07467 4.40228 4.1208 4.24817C4.16286 4.10771 4.21586 3.94307 4.26037 3.84372L4.26055 3.84408C4.44196 3.35581 4.87408 2.99699 5.16416 2.6863C5.37129 2.43195 5.60083 2.00859 5.71716 1.25959C5.63766 1.16441 5.55452 1.07215 5.46774 0.983177C5.43948 0.954187 5.38988 0.971508 5.38532 1.0118Z" fill="#F48931"/>
<path d="M7.52529 4.38241C7.50195 4.49965 7.46713 4.62564 7.42063 4.74652C7.41846 4.75934 7.40807 4.78607 7.39188 4.82118C7.39011 4.82499 7.38833 4.82886 7.38643 4.83285C7.38574 4.83431 7.38501 4.83581 7.38431 4.83728C7.37722 4.85214 7.36925 4.86824 7.36056 4.88523C7.35897 4.88833 7.35738 4.89143 7.35574 4.89459C7.26173 5.07648 7.09034 5.35219 7.00255 5.3533L7 5.35786L7.01821 5.35763C7.24394 5.35473 7.45577 5.24759 7.59142 5.06716C7.66662 4.96714 7.73816 4.86394 7.76597 4.79994C7.69431 4.60084 7.57543 4.269 7.52529 4.38241Z" fill="#F48931"/>
</g>
<defs>
<clipPath id="clip0_1105_151369">
<rect width="10" height="10" fill="white" transform="translate(0 0.5)"/>
</clipPath>
</defs>
</svg>
