<svg width="24" height="24" viewBox="0 0 24 24" fill="none" xmlns="http://www.w3.org/2000/svg">
<path d="M21.3524 4.79297H2.64764C1.73764 4.79297 1 5.53061 1 6.44061V17.5592C1 18.4691 1.73764 19.2068 2.64764 19.2068H21.3524C22.2623 19.2068 23 18.4691 23 17.5592V6.44061C23 5.53061 22.2624 4.79297 21.3524 4.79297Z" fill="#41479B"/>
<path d="M22.9772 6.16827C22.8473 5.388 22.1695 4.79297 21.3524 4.79297H20.9237L13.8966 9.39694V4.79301H10.1034V9.39699L3.07634 4.79301H2.64764C1.8305 4.79301 1.15267 5.388 1.02282 6.16831L7.0289 10.1034H1V13.8965H7.0289L1.02282 17.8315C1.15267 18.6118 1.8305 19.2068 2.64764 19.2068H3.07634L10.1034 14.6028V19.2068H13.8966V14.6028L20.9237 19.2068H21.3524C22.1695 19.2068 22.8473 18.6118 22.9772 17.8315L16.9711 13.8964H23V10.1033H16.9711L22.9772 6.16827Z" fill="#F5F5F5"/>
<path d="M13.1379 4.79297H10.8621V10.8619H1V13.1378H10.8621V19.2067H13.1379V13.1378H23V10.8619H13.1379V4.79297Z" fill="#FF4B55"/>
<path d="M2.06546 19.1006L10.0827 13.8965H8.68931L1.39648 18.6304C1.57493 18.8387 1.80426 19.0019 2.06546 19.1006Z" fill="#FF4B55"/>
<path d="M15.8836 13.8965H14.4902L22.2554 18.9369C22.4727 18.7942 22.654 18.6015 22.7833 18.3751L15.8836 13.8965Z" fill="#FF4B55"/>
<path d="M1.17383 5.70298L7.95129 10.1024H9.34468L1.66479 5.11719C1.45858 5.27067 1.28984 5.47134 1.17383 5.70298Z" fill="#FF4B55"/>
<path d="M15.2899 10.1038L22.5961 5.36117C22.4156 5.15359 22.1845 4.99134 21.9215 4.89453L13.8965 10.1038H15.2899Z" fill="#FF4B55"/>
</svg>
