<svg width="20" height="20" viewBox="0 0 20 20" fill="none" xmlns="http://www.w3.org/2000/svg">
<path fill-rule="evenodd" clip-rule="evenodd" d="M8.90362 4.20665C8.89548 4.19724 8.8873 4.18785 8.87907 4.17848C7.98668 3.16174 7.30759 2.55948 5.99297 2.50417C4.67836 2.44887 3.3967 2.94506 2.42995 3.88358C1.46319 4.82211 0.890533 6.12609 0.837948 7.50866C0.811911 8.19325 0.914339 8.87652 1.13938 9.51947C1.36443 10.1624 1.70768 10.7525 2.14955 11.2559L10.0006 18.3333L17.8517 11.2559C18.7441 10.2392 19.2159 8.89124 19.1633 7.50866C19.1108 6.12609 18.5381 4.82211 17.5714 3.88358C16.6046 2.94506 15.3229 2.44887 14.0083 2.50417C12.6937 2.55948 12.0146 3.16174 11.1222 4.17848C11.1134 4.18858 11.1046 4.19867 11.0958 4.20873C11.0957 4.20892 11.0955 4.20912 11.0953 4.20931C10.8156 4.53164 10.6081 4.82761 10.4467 5.05789C10.2416 5.35041 10.1108 5.53695 10.0006 5.53695C9.88586 5.53695 9.71766 5.29905 9.48883 4.97537C9.32617 4.74531 9.13288 4.47191 8.90635 4.20979C8.90544 4.20874 8.90453 4.2077 8.90362 4.20665ZM16.6117 10.0081C17.1607 9.34705 17.4572 8.47775 17.423 7.577C17.3875 6.64424 17.0012 5.77758 16.3682 5.16305C15.7372 4.55055 14.9136 4.23721 14.0804 4.27227C13.7034 4.28813 13.5037 4.3705 13.3337 4.47907C13.1118 4.62076 12.857 4.86082 12.4221 5.35627C12.1951 5.61493 12.0319 5.8473 11.8644 6.08589C11.8453 6.11301 11.8262 6.14021 11.807 6.16753L11.8021 6.17441C11.7259 6.28267 11.5919 6.47281 11.4423 6.63599C11.3627 6.72276 11.2222 6.86553 11.0255 6.99484C10.8276 7.12499 10.4733 7.30656 10.0006 7.30656C9.47312 7.30656 9.09711 7.07827 8.93419 6.96494C8.75251 6.83855 8.61956 6.7017 8.54309 6.61794C8.391 6.45133 8.25234 6.25812 8.1652 6.13599C8.13019 6.08692 8.09654 6.03944 8.06387 5.99333C7.89477 5.75471 7.75166 5.55276 7.5792 5.35627C7.14435 4.86083 6.88949 4.62076 6.6676 4.47907C6.49758 4.3705 6.29794 4.28813 5.92092 4.27227C5.08767 4.23721 4.26405 4.55055 3.63313 5.16305C3.00011 5.77758 2.61379 6.64424 2.57832 7.577C2.5608 8.03765 2.62983 8.49643 2.78037 8.92652C2.92039 9.32656 3.12772 9.69273 3.38964 10.0081L10.0006 15.9676L16.6117 10.0081Z" fill="#2D334D"/>
<path fill-rule="evenodd" clip-rule="evenodd" d="M13.3525 7.99086C13.1226 7.69549 12.8636 7.43094 12.7052 7.28648L13.8279 6.05476C14.0471 6.25453 14.3724 6.58777 14.6676 6.96697C14.9442 7.32218 15.2781 7.82186 15.3909 8.34039L13.7624 8.69481C13.7335 8.56192 13.6012 8.31022 13.3525 7.99086Z" fill="#E60112"/>
</svg>
