<svg width="12" height="12" viewBox="0 0 12 12" fill="none" xmlns="http://www.w3.org/2000/svg">
<path d="M4.875 4.125C5.25 4.125 6 3.375 6.375 3.375V3.75L7.5 4.5V5.625L5.625 6.375L4.5 5.25C4.5 4.875 4.575 4.125 4.875 4.125Z" fill="#E60112"/>
<path fill-rule="evenodd" clip-rule="evenodd" d="M6 1.41667C5.04522 1.41667 4.12955 1.80298 3.45442 2.49062C2.77928 3.17826 2.4 4.1109 2.4 5.08337C2.4 6.50332 3.30708 7.88117 4.30168 8.95047C4.78978 9.47523 5.2794 9.90483 5.6475 10.2034C5.7845 10.3145 5.90416 10.407 6 10.4792C6.09584 10.407 6.2155 10.3145 6.3525 10.2034C6.7206 9.90483 7.21022 9.47523 7.69832 8.95047C8.69292 7.88117 9.6 6.50332 9.6 5.08337C9.6 4.1109 9.22072 3.17826 8.54558 2.49062C7.87045 1.80298 6.95478 1.41667 6 1.41667ZM6 11.0417C5.75038 11.4231 5.75027 11.423 5.75014 11.4229L5.74886 11.4221L5.74586 11.42L5.73554 11.4129C5.72678 11.4068 5.71428 11.3981 5.6983 11.3869C5.66634 11.3643 5.62041 11.3315 5.56251 11.2889C5.44675 11.2037 5.28286 11.0794 5.08687 10.9205C4.6956 10.6031 4.17272 10.1447 3.64832 9.58091C2.61792 8.47311 1.5 6.87177 1.5 5.08337C1.5 3.86778 1.97411 2.70199 2.81802 1.84244C3.66193 0.982889 4.80653 0.5 6 0.5C7.19347 0.5 8.33807 0.982889 9.18198 1.84244C10.0259 2.70199 10.5 3.86778 10.5 5.08337C10.5 6.87177 9.38208 8.47311 8.35168 9.58091C7.82728 10.1447 7.3044 10.6031 6.91313 10.9205C6.71714 11.0794 6.55325 11.2037 6.43749 11.2889C6.37959 11.3315 6.33366 11.3643 6.3017 11.3869C6.28572 11.3981 6.27322 11.4068 6.26446 11.4129L6.25414 11.42L6.25114 11.4221L6.25019 11.4227C6.25006 11.4228 6.24961 11.4231 6 11.0417ZM6 11.0417L6.24961 11.4231C6.09846 11.5257 5.9013 11.5256 5.75014 11.4229L6 11.0417Z" fill="#3C4467"/>
<path fill-rule="evenodd" clip-rule="evenodd" d="M6 4C5.44772 4 5 4.44772 5 5C5 5.55228 5.44772 6 6 6C6.55229 6 7 5.55228 7 5C7 4.44772 6.55229 4 6 4ZM4 5C4 3.89543 4.89543 3 6 3C7.10457 3 8 3.89543 8 5C8 6.10457 7.10457 7 6 7C4.89543 7 4 6.10457 4 5Z" fill="#3C4467"/>
</svg>
