<svg width="20" height="20" viewBox="0 0 20 20" fill="none" xmlns="http://www.w3.org/2000/svg">
<path fill-rule="evenodd" clip-rule="evenodd" d="M2.625 6.17942C2.625 4.25999 4.38103 2.82039 6.26319 3.19682L11.8056 4.3053C12.1892 4.38202 12.438 4.75519 12.3612 5.13879C12.2845 5.5224 11.9114 5.77117 11.5278 5.69445L5.98536 4.58597C4.97982 4.38487 4.04167 5.15397 4.04167 6.17942V13.8203C4.04167 14.8458 4.97982 15.6149 5.98536 15.4138L11.5278 14.3053C11.9114 14.2286 12.2845 14.4774 12.3612 14.861C12.438 15.2446 12.1892 15.6177 11.8056 15.6945L6.26319 16.8029C4.38103 17.1794 2.625 15.7398 2.625 13.8203V6.17942Z" fill="#E60112"/>
<path fill-rule="evenodd" clip-rule="evenodd" d="M13.209 9.99935C13.209 9.60815 12.8919 9.29102 12.5007 9.29102H12.4173C12.3891 9.29102 12.3613 9.29266 12.334 9.29587C12.3067 9.29266 12.2788 9.29102 12.2507 9.29102H12.084C12.0558 9.29102 12.028 9.29266 12.0007 9.29587C11.9733 9.29266 11.9455 9.29102 11.9173 9.29102H11.7507C11.7225 9.29102 11.6947 9.29266 11.6673 9.29587C11.64 9.29266 11.6122 9.29102 11.584 9.29102H11.4173C11.3891 9.29102 11.3613 9.29266 11.334 9.29587C11.3067 9.29266 11.2788 9.29102 11.2507 9.29102H11.084C11.0558 9.29102 11.028 9.29266 11.0007 9.29587C10.9733 9.29266 10.9455 9.29102 10.9173 9.29102H10.7507C10.7225 9.29102 10.6947 9.29266 10.6673 9.29587C10.64 9.29266 10.6122 9.29102 10.584 9.29102H10.4173C10.3891 9.29102 10.3613 9.29266 10.334 9.29587C10.3067 9.29266 10.2788 9.29102 10.2507 9.29102H10.084C10.0558 9.29102 10.028 9.29266 10.0007 9.29587C9.97332 9.29266 9.94551 9.29102 9.91732 9.29102H9.75065C9.72246 9.29102 9.69465 9.29266 9.66732 9.29587C9.63999 9.29266 9.61218 9.29102 9.58398 9.29102H9.41732C9.38913 9.29102 9.36132 9.29266 9.33398 9.29587C9.30665 9.29266 9.27884 9.29102 9.25065 9.29102H9.08398C9.05579 9.29102 9.02798 9.29266 9.00065 9.29587C8.97332 9.29266 8.94551 9.29102 8.91732 9.29102H8.75065C8.72246 9.29102 8.69465 9.29266 8.66732 9.29587C8.63999 9.29266 8.61218 9.29102 8.58398 9.29102H8.41732C8.38913 9.29102 8.36132 9.29266 8.33399 9.29587C8.30665 9.29266 8.27884 9.29102 8.25065 9.29102H8.08399C8.05579 9.29102 8.02798 9.29266 8.00065 9.29587C7.97332 9.29266 7.94551 9.29102 7.91732 9.29102H7.75065C7.72246 9.29102 7.69465 9.29266 7.66732 9.29587C7.63999 9.29266 7.61218 9.29102 7.58399 9.29102H7.50065C7.10945 9.29102 6.79232 9.60815 6.79232 9.99935C6.79232 10.3905 7.10945 10.7077 7.50065 10.7077H7.58399C7.61218 10.7077 7.63999 10.706 7.66732 10.7028C7.69465 10.706 7.72246 10.7077 7.75065 10.7077H7.91732C7.94551 10.7077 7.97332 10.706 8.00065 10.7028C8.02798 10.706 8.05579 10.7077 8.08399 10.7077H8.25065C8.27884 10.7077 8.30665 10.706 8.33399 10.7028C8.36132 10.706 8.38913 10.7077 8.41732 10.7077H8.58398C8.61218 10.7077 8.63999 10.706 8.66732 10.7028C8.69465 10.706 8.72246 10.7077 8.75065 10.7077H8.91732C8.94551 10.7077 8.97332 10.706 9.00065 10.7028C9.02798 10.706 9.05579 10.7077 9.08398 10.7077H9.25065C9.27884 10.7077 9.30665 10.706 9.33398 10.7028C9.36132 10.706 9.38913 10.7077 9.41732 10.7077H9.58398C9.61218 10.7077 9.63999 10.706 9.66732 10.7028C9.69465 10.706 9.72246 10.7077 9.75065 10.7077H9.91732C9.94551 10.7077 9.97332 10.706 10.0007 10.7028C10.028 10.706 10.0558 10.7077 10.084 10.7077H10.2507C10.2788 10.7077 10.3067 10.706 10.334 10.7028C10.3613 10.706 10.3891 10.7077 10.4173 10.7077H10.584C10.6122 10.7077 10.64 10.706 10.6673 10.7028C10.6947 10.706 10.7225 10.7077 10.7507 10.7077H10.9173C10.9455 10.7077 10.9733 10.706 11.0007 10.7028C11.028 10.706 11.0558 10.7077 11.084 10.7077H11.2507C11.2788 10.7077 11.3067 10.706 11.334 10.7028C11.3613 10.706 11.3891 10.7077 11.4173 10.7077H11.584C11.6122 10.7077 11.64 10.706 11.6673 10.7028C11.6947 10.706 11.7225 10.7077 11.7507 10.7077H11.9173C11.9455 10.7077 11.9733 10.706 12.0007 10.7028C12.028 10.706 12.0558 10.7077 12.084 10.7077H12.2507C12.2788 10.7077 12.3067 10.706 12.334 10.7028C12.3613 10.706 12.3891 10.7077 12.4173 10.7077H12.5007C12.8919 10.7077 13.209 10.3905 13.209 9.99935Z" fill="#E60112"/>
<path fill-rule="evenodd" clip-rule="evenodd" d="M12.7667 7.07439C13.0014 6.76143 13.4454 6.698 13.7584 6.93272L13.8263 6.98365C13.8493 7.00088 13.8709 7.01925 13.8912 7.0386C13.9154 7.05264 13.9391 7.06827 13.9621 7.0855L14.0979 7.18735C14.1209 7.20459 14.1425 7.22295 14.1628 7.24231C14.187 7.25634 14.2107 7.27197 14.2337 7.28921L14.3695 7.39106C14.3925 7.40829 14.4141 7.42665 14.4344 7.44601C14.4586 7.46005 14.4823 7.47568 14.5053 7.49291L14.6411 7.59476C14.6641 7.612 14.6857 7.63036 14.706 7.64971C14.7302 7.66375 14.7539 7.67938 14.7769 7.69661L14.9127 7.79846C14.9357 7.8157 14.9573 7.83406 14.9776 7.85342C15.0018 7.86746 15.0255 7.88308 15.0485 7.90032L15.1843 8.00217C15.2073 8.0194 15.2289 8.03776 15.2492 8.05712C15.2734 8.07116 15.2971 8.08679 15.3201 8.10402L15.4559 8.20587C15.4789 8.22311 15.5005 8.24147 15.5208 8.26082C15.545 8.27486 15.5687 8.29049 15.5917 8.30772L15.7275 8.40958C15.7505 8.42681 15.7721 8.44517 15.7924 8.46453C15.8166 8.47857 15.8403 8.49419 15.8633 8.51143L15.9991 8.61328C16.0221 8.63051 16.0437 8.64888 16.064 8.66823C16.0883 8.68227 16.1119 8.6979 16.1349 8.71513L16.2028 8.76606C16.2408 8.79453 16.2772 8.82452 16.312 8.85592C16.3481 8.88848 16.3801 8.9239 16.4079 8.96154C16.4432 8.99246 16.476 9.02738 16.5056 9.06621C16.5645 9.14354 16.6152 9.22533 16.6575 9.31022C16.6793 9.35395 16.6962 9.39884 16.7084 9.44428C16.7299 9.48597 16.7476 9.53043 16.7609 9.57735C16.787 9.66936 16.8043 9.76314 16.813 9.85736C16.8174 9.90556 16.8169 9.95307 16.8119 9.99939C16.8169 10.0457 16.8174 10.0932 16.813 10.1414C16.8043 10.2356 16.787 10.3294 16.7609 10.4214C16.7476 10.4683 16.7299 10.5128 16.7084 10.5545C16.6962 10.5999 16.6793 10.6448 16.6575 10.6886C16.6152 10.7735 16.5645 10.8552 16.5056 10.9326C16.476 10.9714 16.4432 11.0063 16.4079 11.0372C16.3801 11.0749 16.3481 11.1103 16.312 11.1429C16.2772 11.1743 16.2408 11.2043 16.2028 11.2327L16.1349 11.2836C16.1119 11.3009 16.0883 11.3165 16.064 11.3305C16.0437 11.3499 16.0221 11.3683 15.9991 11.3855L15.8633 11.4874C15.8403 11.5046 15.8166 11.5202 15.7924 11.5343C15.7721 11.5536 15.7505 11.572 15.7275 11.5892L15.5917 11.6911C15.5687 11.7083 15.545 11.7239 15.5208 11.738C15.5005 11.7573 15.4789 11.7757 15.4559 11.7929L15.3201 11.8948C15.2971 11.912 15.2734 11.9276 15.2492 11.9417C15.2289 11.961 15.2073 11.9794 15.1843 11.9966L15.0485 12.0985C15.0255 12.1157 15.0018 12.1313 14.9776 12.1454C14.9573 12.1647 14.9357 12.1831 14.9127 12.2003L14.7769 12.3022C14.7539 12.3194 14.7302 12.335 14.706 12.3491C14.6857 12.3684 14.6641 12.3868 14.6411 12.404L14.5053 12.5059C14.4823 12.5231 14.4586 12.5387 14.4344 12.5528C14.4141 12.5721 14.3925 12.5905 14.3695 12.6077L14.2337 12.7096C14.2107 12.7268 14.187 12.7424 14.1628 12.7565C14.1425 12.7758 14.1209 12.7942 14.0979 12.8114L13.9621 12.9133C13.9391 12.9305 13.9154 12.9461 13.8912 12.9602C13.8709 12.9795 13.8493 12.9979 13.8263 13.0151L13.7584 13.0661C13.4454 13.3008 13.0014 13.2374 12.7667 12.9244C12.532 12.6114 12.5954 12.1674 12.9084 11.9327L12.9763 11.8818C12.9993 11.8646 13.0229 11.8489 13.0472 11.8349C13.0675 11.8155 13.0891 11.7972 13.1121 11.7799L13.2479 11.6781C13.2709 11.6609 13.2945 11.6452 13.3188 11.6312C13.3391 11.6118 13.3607 11.5935 13.3837 11.5762L13.5195 11.4744C13.5425 11.4572 13.5661 11.4415 13.5904 11.4275C13.6107 11.4081 13.6323 11.3898 13.6553 11.3725L13.7911 11.2707C13.8141 11.2535 13.8378 11.2378 13.862 11.2238C13.8823 11.2044 13.9039 11.1861 13.9269 11.1688L14.0627 11.067C14.0857 11.0497 14.1094 11.0341 14.1336 11.0201C14.1539 11.0007 14.1755 10.9824 14.1985 10.9651L14.3343 10.8633C14.3573 10.846 14.381 10.8304 14.4052 10.8164C14.4255 10.797 14.4471 10.7787 14.4701 10.7614L14.6059 10.6596C14.6289 10.6423 14.6526 10.6267 14.6768 10.6127C14.6971 10.5933 14.7187 10.575 14.7417 10.5577L14.8775 10.4559C14.9005 10.4386 14.9242 10.423 14.9484 10.409C14.9687 10.3896 14.9903 10.3713 15.0133 10.354L15.1491 10.2522C15.1721 10.2349 15.1958 10.2193 15.22 10.2053C15.2403 10.1859 15.2619 10.1676 15.2849 10.1503L15.3528 10.0994C15.3567 10.0965 15.3601 10.0937 15.3631 10.0909C15.366 10.0883 15.369 10.0857 15.3719 10.0831C15.3741 10.0801 15.3764 10.0771 15.3786 10.0742C15.383 10.0684 15.3867 10.0624 15.3899 10.0561C15.3915 10.0528 15.3932 10.0495 15.3949 10.0463C15.3959 10.0426 15.3969 10.039 15.3979 10.0353C15.4 10.0278 15.4015 10.0199 15.4023 10.0117C15.4026 10.0076 15.403 10.0035 15.4035 9.99939C15.403 9.99528 15.4026 9.99117 15.4023 9.98704C15.4015 9.97886 15.4 9.97096 15.3979 9.96347C15.3969 9.95982 15.3959 9.95617 15.3949 9.95253C15.3932 9.94926 15.3915 9.94597 15.3899 9.94267C15.3867 9.93636 15.383 9.93035 15.3786 9.92463C15.3764 9.92165 15.3741 9.91867 15.3719 9.91567C15.369 9.91309 15.366 9.91049 15.3631 9.90785C15.3601 9.9051 15.3567 9.90227 15.3528 9.89939L15.2849 9.84846C15.2619 9.83123 15.2403 9.81287 15.22 9.79351C15.1958 9.77947 15.1721 9.76385 15.1491 9.74661L15.0133 9.64476C14.9903 9.62753 14.9687 9.60916 14.9484 9.58981C14.9242 9.57577 14.9005 9.56014 14.8775 9.54291L14.7417 9.44106C14.7187 9.42382 14.6971 9.40546 14.6768 9.3861C14.6526 9.37207 14.6289 9.35644 14.6059 9.33921L14.4701 9.23735C14.4471 9.22012 14.4255 9.20176 14.4052 9.1824C14.381 9.16836 14.3573 9.15274 14.3343 9.1355L14.1985 9.03365C14.1755 9.01642 14.1539 8.99805 14.1336 8.9787C14.1094 8.96466 14.0857 8.94903 14.0627 8.9318L13.9269 8.82995C13.9039 8.81271 13.8823 8.79435 13.862 8.77499C13.8378 8.76096 13.8141 8.74533 13.7911 8.72809L13.6553 8.62624C13.6323 8.60901 13.6107 8.59065 13.5904 8.57129C13.5662 8.55725 13.5425 8.54162 13.5195 8.52439L13.3837 8.42254C13.3607 8.4053 13.3391 8.38694 13.3188 8.36759C13.2945 8.35355 13.2709 8.33792 13.2479 8.32069L13.1121 8.21884C13.0891 8.2016 13.0675 8.18324 13.0472 8.16388C13.0229 8.14984 12.9993 8.13422 12.9763 8.11698L12.9084 8.06606C12.5954 7.83134 12.532 7.38735 12.7667 7.07439Z" fill="#E60112"/>
</svg>
