<svg width="21" height="22" viewBox="0 0 21 22" fill="none" xmlns="http://www.w3.org/2000/svg">
<path d="M10.5009 20.3357C15.6558 20.3357 19.8348 16.1568 19.8348 11.0019C19.8348 5.84689 15.6558 1.66797 10.5009 1.66797C5.34592 1.66797 1.16699 5.84689 1.16699 11.0019C1.16699 16.1568 5.34592 20.3357 10.5009 20.3357Z" fill="#1977F3"/>
<path d="M14.134 13.7L14.5475 11.0013H11.959V9.25029C11.959 8.51261 12.32 7.792 13.4803 7.792H14.6577V5.49495C14.6577 5.49495 13.5893 5.3125 12.5681 5.3125C10.4364 5.3125 9.04243 6.6041 9.04243 8.94446V11.0013H6.67188V13.7H9.04243V20.2223C9.51759 20.2971 10.0046 20.3352 10.5007 20.3352C10.9969 20.3352 11.4839 20.2958 11.959 20.2223V13.7H14.134Z" fill="white"/>
</svg>
