<svg width="21" height="22" viewBox="0 0 21 22" fill="none" xmlns="http://www.w3.org/2000/svg">
<path d="M19.106 11.0875C19.106 10.365 19.0473 9.83776 18.9205 9.29102H10.6709V12.5519H15.5132C15.4156 13.3623 14.8884 14.5828 13.7169 15.4028L13.7005 15.512L16.3088 17.5328L16.4895 17.5508C18.1492 16.018 19.106 13.7626 19.106 11.0875Z" fill="#4285F4"/>
<path d="M10.6706 19.68C13.0429 19.68 15.0345 18.8989 16.4892 17.5516L13.7166 15.4036C12.9746 15.9211 11.9788 16.2823 10.6706 16.2823C8.34708 16.2823 6.375 14.7495 5.67201 12.6309L5.56897 12.6396L2.85676 14.7387L2.82129 14.8374C4.26617 17.7078 7.23407 19.68 10.6706 19.68Z" fill="#34A853"/>
<path d="M5.67172 12.6294C5.48623 12.0826 5.37888 11.4968 5.37888 10.8915C5.37888 10.2861 5.48623 9.70033 5.66196 9.15359L5.65705 9.03715L2.91085 6.9043L2.821 6.94704C2.22549 8.13819 1.88379 9.47579 1.88379 10.8915C1.88379 12.3072 2.22549 13.6447 2.821 14.8359L5.67172 12.6294Z" fill="#FBBC05"/>
<path d="M10.6706 5.5031C12.3205 5.5031 13.4334 6.21583 14.0681 6.81143L16.5478 4.3901C15.0248 2.97441 13.0429 2.10547 10.6706 2.10547C7.23408 2.10547 4.26617 4.07766 2.82129 6.94807L5.66226 9.15462C6.37501 7.03597 8.34708 5.5031 10.6706 5.5031Z" fill="#EB4335"/>
</svg>
