<svg width="20" height="20" viewBox="0 0 20 20" fill="none" xmlns="http://www.w3.org/2000/svg">
<g clip-path="url(#clip0_1507_157693)">
<path d="M5.41602 7.5H3.33268L2.91602 9.16667L3.33268 14.5833H5.41602V7.5Z" fill="#E60112"/>
<path d="M17.5 7.5H15.4167L15 9.16667L15.4167 14.5833H17.5V7.5Z" fill="#E60112"/>
<path d="M18.9018 8.45098C18.5076 8.20749 18.0669 8.15725 17.6805 8.1959V7.78621C17.6805 3.61981 14.2716 0.210938 10.1052 0.210938C5.93878 0.210938 2.5299 3.61981 2.5299 7.78621V8.19203C2.14341 8.15338 1.7028 8.20363 1.30858 8.44712C0.578107 8.89932 0.210938 9.84623 0.210938 11.2647C0.210938 12.687 0.581972 13.6377 1.30858 14.0938C1.67188 14.3218 2.09316 14.3991 2.5299 14.3643V14.7818C2.5299 15.1025 2.78885 15.3615 3.10964 15.3615H5.4286C5.74939 15.3615 6.00834 15.1025 6.00834 14.7818V7.78621C6.00834 7.46542 5.74939 7.20647 5.4286 7.20647H3.71644C4.01017 3.9406 6.76201 1.37042 10.1052 1.37042C13.4483 1.37042 16.2002 3.9406 16.4939 7.20647H14.7818C14.461 7.20647 14.202 7.46542 14.202 7.78621V14.7818C14.202 15.1025 14.461 15.3615 14.7818 15.3615H17.6805V14.3643C18.1172 14.403 18.5385 14.3218 18.9018 14.0938C19.6322 13.6377 19.9994 12.6831 19.9994 11.2647C19.9994 9.84623 19.6322 8.89932 18.9018 8.45098ZM2.5299 13.1971C2.34438 13.228 2.11249 13.2319 1.92697 13.1121C1.56753 12.8879 1.37042 12.2309 1.37042 11.2647C1.37042 10.3062 1.56367 9.65684 1.91151 9.43654C2.10089 9.31673 2.34052 9.32446 2.5299 9.36311V13.1971ZM4.84886 8.36596V14.202H3.68938V8.36596H4.84886ZM16.521 14.202H15.3615V8.36596H16.521V14.202ZM18.2911 13.1082C18.1056 13.228 17.8698 13.2242 17.6805 13.1933V9.36311C17.8698 9.32446 18.1095 9.31673 18.2988 9.43654C18.6506 9.65684 18.8399 10.3062 18.8399 11.2647C18.8399 12.227 18.6428 12.8841 18.2911 13.1082Z" fill="#2D334D"/>
<path d="M16.5203 15.3613V15.9411C16.5203 16.8996 15.7395 17.6803 14.781 17.6803H12.9027C12.663 17.0039 12.0176 16.5208 11.2639 16.5208H10.1045C9.14595 16.5208 8.36523 17.3015 8.36523 18.26C8.36523 19.2185 9.14595 19.9993 10.1045 19.9993H11.2639C12.0215 19.9993 12.663 19.5161 12.9027 18.8398H14.781C16.3811 18.8398 17.6797 17.5373 17.6797 15.9411V15.3613H16.5203ZM11.2639 18.8398H10.1045C9.78367 18.8398 9.52472 18.5808 9.52472 18.26C9.52472 17.9392 9.78367 17.6803 10.1045 17.6803H11.2639C11.5847 17.6803 11.8437 17.9392 11.8437 18.26C11.8437 18.5808 11.5847 18.8398 11.2639 18.8398Z" fill="#2D334D"/>
</g>
<defs>
<clipPath id="clip0_1507_157693">
<rect width="20" height="20" fill="white"/>
</clipPath>
</defs>
</svg>
