<svg width="32" height="32" viewBox="0 0 32 32" fill="none" xmlns="http://www.w3.org/2000/svg">
<g clip-path="url(#clip0_1500_154665)">
<circle cx="16" cy="16" r="16" fill="#FDE6E8"/>
<g clip-path="url(#clip1_1500_154665)">
<path d="M16.0018 16.3084C18.2876 16.3084 20.156 14.4399 20.156 12.1542C20.156 9.86847 18.2876 8 16.0018 8C13.7161 8 11.8477 9.86847 11.8477 12.1542C11.8477 14.4399 13.7161 16.3084 16.0018 16.3084Z" fill="#E60112"/>
<path d="M16.0018 16.3084C18.2876 16.3084 20.156 14.4399 20.156 12.1542C20.156 9.86847 18.2876 8 16.0018 8C13.7161 8 11.8477 9.86847 11.8477 12.1542C11.8477 14.4399 13.7161 16.3084 16.0018 16.3084Z" fill="url(#paint0_linear_1500_154665)"/>
<path d="M16.0018 16.3084C18.2876 16.3084 20.156 14.4399 20.156 12.1542C20.156 9.86847 18.2876 8 16.0018 8C13.7161 8 11.8477 9.86847 11.8477 12.1542C11.8477 14.4399 13.7161 16.3084 16.0018 16.3084Z" fill="url(#paint1_linear_1500_154665)"/>
<path d="M23.1312 19.628C23.0223 19.3559 22.8772 19.1019 22.714 18.8661C21.8795 17.6325 20.5915 16.8162 19.1403 16.6167C18.9589 16.5985 18.7593 16.6348 18.6142 16.7436C17.8523 17.306 16.9453 17.5962 16.0019 17.5962C15.0586 17.5962 14.1516 17.306 13.3897 16.7436C13.2445 16.6348 13.045 16.5804 12.8636 16.6167C11.4124 16.8162 10.1062 17.6325 9.28992 18.8661C9.12666 19.1019 8.98152 19.3741 8.8727 19.628C8.81829 19.7369 8.83642 19.8639 8.89083 19.9727C9.03596 20.2267 9.21735 20.4807 9.38062 20.6983C9.63458 21.043 9.90669 21.3514 10.2151 21.6416C10.4691 21.8956 10.7593 22.1314 11.0496 22.3673C12.4827 23.4376 14.206 23.9999 15.9838 23.9999C17.7616 23.9999 19.485 23.4375 20.9181 22.3673C21.2083 22.1496 21.4985 21.8956 21.7525 21.6416C22.0428 21.3514 22.333 21.043 22.587 20.6983C22.7684 20.4625 22.9317 20.2267 23.0768 19.9727C23.1675 19.8639 23.1856 19.7368 23.1312 19.628Z" fill="url(#paint2_linear_1500_154665)"/>
</g>
</g>
<defs>
<linearGradient id="paint0_linear_1500_154665" x1="11.825" y1="5.2971" x2="24.7547" y2="16.9127" gradientUnits="userSpaceOnUse">
<stop stop-color="#E60112"/>
<stop offset="1" stop-color="#E66101"/>
</linearGradient>
<linearGradient id="paint1_linear_1500_154665" x1="9.96863" y1="3.72406" x2="26.7651" y2="17.1037" gradientUnits="userSpaceOnUse">
<stop stop-color="#E60112"/>
<stop offset="1" stop-color="#FF842B"/>
</linearGradient>
<linearGradient id="paint2_linear_1500_154665" x1="5.60078" y1="12.7999" x2="19.6008" y2="34.3999" gradientUnits="userSpaceOnUse">
<stop stop-color="#E60112"/>
<stop offset="1" stop-color="#FF842B"/>
</linearGradient>
<clipPath id="clip0_1500_154665">
<rect width="32" height="32" fill="white"/>
</clipPath>
<clipPath id="clip1_1500_154665">
<rect width="16" height="16" fill="white" transform="translate(8 8)"/>
</clipPath>
</defs>
</svg>
