<svg width="20" height="20" viewBox="0 0 20 20" fill="none" xmlns="http://www.w3.org/2000/svg">
<g clip-path="url(#clip0_1507_157690)">
<path d="M11.375 10.916H8.625V12.291L9.08333 14.1243H11.375V10.916Z" fill="#E60112"/>
<path d="M12.898 4.36035V3.68359C12.898 2.61741 12.0306 1.75 10.9644 1.75H9.03559C7.9694 1.75 7.10199 2.61741 7.10199 3.68359V4.36035H1.75V15.543C1.75 16.6092 2.61741 17.4766 3.68359 17.4766H16.3164C17.3826 17.4766 18.25 16.6092 18.25 15.543V4.36035H12.898ZM8.39106 3.68359C8.39106 3.3282 8.68019 3.03906 9.03559 3.03906H10.9644C11.3198 3.03906 11.6089 3.3282 11.6089 3.68359V4.36035H8.39106V3.68359ZM16.9609 15.543C16.9609 15.8984 16.6718 16.1875 16.3164 16.1875H3.68359C3.3282 16.1875 3.03906 15.8984 3.03906 15.543V11.2791C3.05099 11.2833 3.06297 11.2874 3.07503 11.2914L8.06641 12.9464V14.8018H11.9336V12.9464L16.925 11.2914C16.937 11.2874 16.949 11.2833 16.9609 11.2791V15.543ZM9.35547 13.5127V11.5791H10.6445V13.5127H9.35547ZM16.9609 9.45608C16.9609 9.73439 16.7834 9.98025 16.5193 10.0678L11.9336 11.5884V10.29H8.06641V11.5884L3.48076 10.0678C3.21657 9.98025 3.03906 9.73439 3.03906 9.45608V5.64941H16.9609V9.45608Z" fill="black"/>
<path d="M11.375 10.916H8.625V12.291L9.08333 14.1243H11.375V10.916Z" fill="#E60112"/>
<path d="M12.898 4.36035V3.68359C12.898 2.61741 12.0306 1.75 10.9644 1.75H9.03559C7.9694 1.75 7.10199 2.61741 7.10199 3.68359V4.36035H1.75V15.543C1.75 16.6091 2.61741 17.4766 3.68359 17.4766H16.3164C17.3826 17.4766 18.25 16.6091 18.25 15.543V4.36035H12.898ZM8.39106 3.68359C8.39106 3.3282 8.68019 3.03906 9.03559 3.03906H10.9644C11.3198 3.03906 11.6089 3.3282 11.6089 3.68359V4.36035H8.39106V3.68359ZM16.9609 15.543C16.9609 15.8984 16.6718 16.1875 16.3164 16.1875H3.68359C3.3282 16.1875 3.03906 15.8984 3.03906 15.543V11.2791C3.05099 11.2833 3.06297 11.2874 3.07503 11.2914L8.06641 12.9464V14.8018H11.9336V12.9464L16.925 11.2914C16.937 11.2874 16.949 11.2833 16.9609 11.2791V15.543ZM9.35547 13.5127V11.5791H10.6445V13.5127H9.35547ZM16.9609 9.45608C16.9609 9.73439 16.7834 9.98024 16.5193 10.0678L11.9336 11.5883V10.29H8.06641V11.5883L3.48076 10.0678C3.21657 9.98024 3.03906 9.73439 3.03906 9.45608V5.64941H16.9609V9.45608Z" fill="black"/>
</g>
<defs>
<clipPath id="clip0_1507_157690">
<rect width="20" height="20" fill="white"/>
</clipPath>
</defs>
</svg>
